<?xml version="1.0" encoding="UTF-8" standalone="no"?>
<svg
   xmlns:dc="http://purl.org/dc/elements/1.1/"
   xmlns:cc="http://creativecommons.org/ns#"
   xmlns:rdf="http://www.w3.org/1999/02/22-rdf-syntax-ns#"
   xmlns:svg="http://www.w3.org/2000/svg"
   xmlns="http://www.w3.org/2000/svg"
   viewBox="0 0 584.01331 186.60001"
   height="186.60001"
   width="584.01331"
   xml:space="preserve"
   id="svg2"
   version="1.1"><metadata
     id="metadata8"><rdf:RDF><cc:Work
         rdf:about=""><dc:format>image/svg+xml</dc:format><dc:type
           rdf:resource="http://purl.org/dc/dcmitype/StillImage" /><dc:title></dc:title></cc:Work></rdf:RDF></metadata><defs
     id="defs6" /><g
     transform="matrix(1.3333333,0,0,-1.3333333,0,186.6)"
     id="g10"><g
       transform="scale(0.1)"
       id="g12"><path
         id="path14"
         style="fill:#ffffff;fill-opacity:1;fill-rule:nonzero;stroke:none"
         d="m 1074.57,914.098 c -8.32,48.164 -20.23,87.292 -36.43,119.632 -14.01,27.98 -31.42,50.78 -51.734,67.77 -28.394,23.74 -62.582,36.28 -98.883,36.28 -17.273,0 -34.011,-2.34 -49.824,-6.88 l 53.356,114.22 -109.063,77.47 h -78.594 c -13.367,0 -28.046,10.16 -46.632,23.02 -32.86,22.73 -77.86,53.87 -153.871,53.87 -64.254,0 -114.942,-17.88 -154.957,-54.66 0,0 -259.8482,-253.49 -261.2739,-254.9 v 0 C 71.5586,1074.54 58.3398,1055.64 47.3633,1033.73 31.168,1001.39 19.2539,962.262 10.9375,914.098 -6.48047,813.242 -3.04297,712.48 20.875,622.715 46.6797,525.859 93.8359,432.91 161.031,346.449 243.152,240.781 355.492,144.781 494.93,61.1094 l 47.824,-28.711 47.82,28.711 C 730.02,144.789 842.363,240.789 924.477,346.449 c 67.191,86.461 114.353,179.41 140.153,276.266 23.92,89.765 27.35,190.523 9.94,291.383" /><path
         id="path16"
         style="fill:#231f20;fill-opacity:1;fill-rule:nonzero;stroke:none"
         d="M 465.938,1021.18 H 320.992 L 307.945,803.012 c 7.965,-1.199 15.743,-3.535 23.071,-6.949 l 134.922,225.117" /><path
         id="path18"
         style="fill:#231f20;fill-opacity:1;fill-rule:nonzero;stroke:none"
         d="m 353.27,526.34 c -0.399,0.187 -0.805,0.383 -1.204,0.574 v -17.703 c 2.317,-1.074 4.707,-2.133 7.2,-3.137 11.101,-4.48 24.464,-8.023 45.05,-8.023 22.497,0 36.372,4.219 48.082,9.289 v 17.582 c -12.152,-5.766 -24.562,-10.875 -48.082,-10.875 -21.574,0 -33.793,4.297 -45.05,9.461 -2.012,0.926 -3.996,1.875 -5.996,2.832" /><path
         id="path20"
         style="fill:#231f20;fill-opacity:1;fill-rule:nonzero;stroke:none"
         d="m 359.266,458.516 c -2.012,0.925 -3.996,1.875 -5.996,2.832 -0.399,0.191 -0.805,0.382 -1.204,0.578 v -17.707 c 2.317,-1.074 4.707,-2.129 7.2,-3.133 11.101,-4.484 24.464,-8.027 45.05,-8.027 15.801,0 27.332,2.089 36.864,5.086 v 16.933 c -9.317,-3.496 -20.344,-6.019 -36.864,-6.019 -21.574,0 -33.793,4.296 -45.05,9.457" /><path
         id="path22"
         style="fill:#231f20;fill-opacity:1;fill-rule:nonzero;stroke:none"
         d="m 359.266,393.648 c -2.012,0.922 -3.996,1.872 -5.996,2.832 -0.399,0.192 -0.805,0.379 -1.204,0.571 v -17.699 c 2.317,-1.071 4.707,-2.133 7.2,-3.133 11.101,-4.489 24.464,-8.028 45.05,-8.028 8.211,0 15.25,0.571 21.481,1.539 v 16.231 c -6.074,-1.109 -13.055,-1.781 -21.481,-1.781 -21.574,0 -33.793,4.308 -45.05,9.468" /><path
         id="path24"
         style="fill:#231f20;fill-opacity:1;fill-rule:nonzero;stroke:none"
         d="m 522.242,1321.74 c 12.035,-2.56 23.645,-6.5 34.574,-11.93 10.954,-5.4 21.254,-12.12 31.422,-19.53 15.071,-10.89 30.301,-23.51 48.192,-33.47 v 27.03 c -12.282,6.73 -24.5,14.89 -37.282,22.8 -11.164,6.9 -23,13.41 -35.566,18.44 -12.531,5.07 -25.773,8.44 -39.055,10.21 -13.289,1.76 -26.679,1.87 -39.754,0.82 -0.761,-0.06 -1.515,-0.16 -2.281,-0.23 v -10.59 c 0.891,0 1.785,0.05 2.672,0.05 12.598,0.05 25.027,-1.04 37.078,-3.6" /><path
         id="path26"
         style="fill:#231f20;fill-opacity:1;fill-rule:nonzero;stroke:none"
         d="M 1027.09,632.715 C 1012,576.051 989.109,520.723 958.773,467.309 l -0.003,-0.004 c -1.559,-2.742 -3.165,-5.473 -4.762,-8.203 -1.195,-2.051 -2.391,-4.098 -3.613,-6.141 -1.567,-2.629 -3.161,-5.258 -4.766,-7.879 -1.383,-2.25 -2.781,-4.496 -4.195,-6.742 -1.508,-2.41 -3.012,-4.828 -4.559,-7.235 -2.777,-4.328 -5.598,-8.64 -8.473,-12.941 -1.113,-1.66 -2.261,-3.305 -3.386,-4.961 -2.149,-3.16 -4.317,-6.316 -6.52,-9.465 -1.269,-1.804 -2.551,-3.601 -3.836,-5.41 -2.258,-3.156 -4.547,-6.316 -6.863,-9.476 -1.137,-1.551 -2.27,-3.102 -3.43,-4.661 -3.429,-4.613 -6.906,-9.203 -10.461,-13.781 -0.035,-0.039 -0.062,-0.082 -0.097,-0.129 -3.301,-4.242 -6.731,-8.453 -10.133,-12.66 C 846.273,311.281 802.754,266.852 753.258,224.602 716.746,193.449 676.953,163.5 634.145,134.801 613.637,121.051 592.5,107.559 570.586,94.4102 L 542.754,77.7109 v 0 0 L 514.918,94.4102 C 379.605,175.621 270.859,268.43 191.699,370.281 c -2.308,2.969 -4.543,5.969 -6.797,8.957 -1.523,2.012 -3.082,4.012 -4.582,6.024 -2.754,3.707 -5.429,7.449 -8.109,11.179 -0.938,1.309 -1.91,2.618 -2.844,3.93 -3.043,4.297 -6.008,8.617 -8.953,12.945 -0.5,0.731 -1.016,1.454 -1.508,2.188 -3.222,4.769 -6.367,9.562 -9.468,14.367 -0.172,0.266 -0.352,0.527 -0.524,0.793 -41.555,64.613 -71.9257,132.316 -90.5077,202.051 -22.4805,84.39 -25.6641,179.402 -9.1915,274.773 5.3633,31.082 12.2891,57.782 20.9063,80.965 2.6484,-17.121 9.3594,-32.91 19.0859,-46.383 -3.1679,-12.386 -5.957,-25.492 -8.4687,-40.023 -3.9219,-22.746 -6.6875,-45.41 -8.2813,-67.914 l 150.559,-70.348 c 2.523,4.035 5.289,7.926 8.464,11.457 2.278,2.571 4.75,4.946 7.317,7.207 L 147.77,901.168 c 9.191,-2.559 18.867,-3.961 28.867,-3.961 7.195,0 14.23,0.789 21.082,2.152 l 61.894,-103.273 c 7.328,3.406 15.117,5.699 23.082,6.91 l -9.25,154.723 c 3.129,6.426 5.735,13.195 7.571,20.328 l 21.976,72.483 0.801,2.65 H 786.09 l 3.406,3.78 c 17.199,19.15 48.168,41.98 98.027,41.98 27.075,0 52.653,-9.42 73.965,-27.24 16.207,-13.55 30.313,-32.18 41.922,-55.36 14.47,-28.891 25.22,-64.488 32.88,-108.852 16.47,-95.371 13.29,-190.383 -9.2,-274.773 z m -768.156,351.23 c -8.879,-34.875 -38.625,-59.953 -73.895,-63.433 -2.773,-0.274 -5.57,-0.453 -8.402,-0.453 -44.895,0 -81.6682,35.039 -84.6409,79.187 -0.125,1.904 -0.293,3.804 -0.293,5.734 0,23.27 9.6879,45.57 26.8009,61.82 1.812,1.7 82.844,80.82 82.844,80.82 h 82.543 v -81.33 z m 115.535,332.505 c 11.894,10.93 48.078,44.19 128.426,44.19 63.882,0 99.945,-24.96 131.773,-46.97 23.203,-16.06 43.238,-29.92 68.73,-29.92 h 66.2 l 72.554,-51.54 -30.027,-64.28 h -65.23 c -9.485,0.65 -18.832,4.07 -26.239,10.45 -9.289,7.82 -15.082,19.94 -16.082,33.11 h -11.465 c -0.398,-7.82 0.485,-15.89 3.02,-23.63 2.543,-7.84 6.769,-15.31 12.445,-21.63 2.485,-2.77 5.278,-5.29 8.254,-7.58 l -16.16,-34.59 44.473,-48.04 h -33.778 l -58.465,50.17 h -13.605 l 43.035,-50.17 h -86.457 l -49.933,49.94 h -29.766 c 5.965,13.43 9.48,27.88 10.086,42.43 0.137,2.66 0.129,5.33 0.105,7.99 l -0.574,7.96 -0.301,3.98 -0.679,3.93 -1.411,7.83 c -2.656,10.27 -6.148,20.33 -11.339,29.55 -5.215,9.14 -11.239,17.87 -18.739,25.21 l -2.711,2.83 -2.957,2.58 c -1.996,1.69 -3.914,3.47 -5.968,5.07 -4.274,3 -8.387,6.21 -13.012,8.64 -13.938,8.29 -29.688,13.01 -45.625,14.61 -4.567,0.46 -9.152,0.71 -13.711,0.66 v -6.51 -4.56 c 18.5,-0.78 36.801,-5.99 52.039,-16.16 3.949,-2.31 7.395,-5.34 10.992,-8.11 1.719,-1.49 3.301,-3.14 4.961,-4.69 l 2.457,-2.35 2.215,-2.58 c 6.188,-6.65 10.945,-14.47 15.008,-22.45 4.035,-8.07 6.504,-16.75 8.34,-25.46 l 0.832,-6.65 0.422,-3.31 0.062,-3.34 0.16,-6.67 c -0.097,-2.23 -0.199,-4.45 -0.422,-6.66 -1.64,-17.67 -8.3,-34.62 -18.785,-48.59 l -13.519,-18.03 h 62.371 l 27.09,-27.09 H 306.742 v 94.45 H 224.781 Z M 1058.81,911.379 c -8.04,46.601 -19.48,84.273 -34.97,115.191 -13.02,26 -29.067,47.09 -47.692,62.66 -25.48,21.3 -56.125,32.57 -88.625,32.57 -43.574,0 -82.906,-16.17 -111.367,-45.64 l -48.277,52.15 7.828,16.76 h 65.742 l -7.847,-16.79 h 25.222 l 52.098,111.53 -94.031,66.79 h -73.493 c -18.355,0 -34.847,11.41 -55.726,25.86 -32.863,22.74 -73.762,51.03 -144.777,51.03 -60.059,0 -107.125,-16.42 -144.137,-50.44 L 192.051,1170.47 h -0.012 c 0,0 -93.6913,-91.45 -93.9687,-91.76 C 84.1992,1064.59 71.9727,1047.15 61.6641,1026.57 46.1797,995.652 34.7422,957.98 26.6953,911.379 9.66797,812.777 12.9961,714.387 36.3242,626.832 61.5781,532.051 107.781,441.02 173.656,356.262 254.555,252.172 365.414,157.48 503.156,74.8203 l 39.598,-23.7695 39.59,23.7695 C 720.086,157.48 830.949,252.16 911.852,356.262 c 65.871,84.758 112.078,175.789 137.328,270.57 23.32,87.555 26.65,185.945 9.63,284.547" /><path
         id="path28"
         style="fill:#231f20;fill-opacity:1;fill-rule:nonzero;stroke:none"
         d="m 775.094,1225.23 c 6.812,0 12.336,5.53 12.336,12.34 0,6.82 -5.524,12.34 -12.336,12.34 -6.817,0 -12.34,-5.52 -12.34,-12.34 0,-6.81 5.523,-12.34 12.34,-12.34" /><path
         id="path30"
         style="fill:#231f20;fill-opacity:1;fill-rule:nonzero;stroke:none"
         d="m 704.559,1231.11 c 0,0 0.015,0.08 0.05,0.21 0.454,1.91 4.36,16.39 19.094,18.86 v 11.7 h -30.726 v -30.77 h 11.582" /><path
         id="path32"
         style="fill:#231f20;fill-opacity:1;fill-rule:nonzero;stroke:none"
         d="m 621.754,573.734 c 13.875,-6.66 29.598,-14.207 59.449,-14.207 20.238,0 33.969,3.469 45.039,7.778 0.149,0.058 0.305,0.113 0.453,0.172 5.086,2 9.618,4.171 13.961,6.257 0.278,0.133 0.543,0.258 0.817,0.391 2.558,1.227 5.07,2.418 7.625,3.535 0.433,0.195 0.867,0.387 1.308,0.578 l 28.364,-21.347 -0.004,-233.993 c -0.028,-0.027 -0.051,-0.058 -0.078,-0.089 l -14.274,11.953 v 214.054 l -15.996,12.039 V 338.5 c -5.879,-2.172 -11.09,-4.629 -16.172,-7.07 -1.105,-0.532 -2.207,-1.051 -3.305,-1.578 -12.046,-5.704 -24.441,-10.711 -47.746,-10.711 -25.429,0 -37.875,5.968 -51.043,12.289 -13.91,6.679 -28.316,13.558 -56.203,13.84 l -1.609,21.039 -1.856,24.203 71.993,-35.672 -4.954,23.14 -33.515,156.508 26.738,-5.441 -9.746,45.051 c 0.25,-0.121 0.496,-0.243 0.754,-0.364 z m -157.984,0 c 0.253,0.121 0.496,0.243 0.746,0.36 l -9.731,-44.957 h 0.004 l -0.019,-0.094 26.742,5.445 -38.457,-179.636 71.644,35.5 -1.808,-24.133 -1.567,-20.957 c -27.726,-0.321 -42.097,-7.172 -55.957,-13.832 -13.176,-6.321 -25.617,-12.289 -51.051,-12.289 -23.304,0 -35.699,5.007 -47.742,10.711 -1.101,0.527 -2.199,1.046 -3.304,1.578 -5.086,2.441 -10.293,4.898 -16.176,7.07 v 222.355 l -0.68,-0.507 -15.316,-11.532 V 334.762 L 306.82,322.809 c -0.023,0.031 -0.047,0.05 -0.074,0.082 v 70.988 11.387 l -0.004,151.625 28.371,21.347 c 0.438,-0.187 0.867,-0.383 1.301,-0.57 1.914,-0.848 3.805,-1.723 5.707,-2.625 0.91,-0.434 1.824,-0.867 2.746,-1.313 4.34,-2.085 8.867,-4.253 13.949,-6.253 0.149,-0.059 0.305,-0.114 0.45,-0.172 11.082,-4.309 24.816,-7.778 45.05,-7.778 29.86,0 45.575,7.547 59.454,14.207 z M 733.23,314.199 c 2.012,0.93 3.981,1.871 5.934,2.813 4.606,2.207 9.133,4.347 14.106,6.218 l 12.726,-10.652 c -3.527,-1.047 -6.769,-2.316 -10.086,-3.808 -0.32,-0.141 -0.652,-0.301 -0.972,-0.442 -1.903,-0.867 -3.829,-1.789 -5.891,-2.769 -0.875,-0.418 -1.754,-0.848 -2.641,-1.27 -15.133,-7.211 -32.836,-14.848 -65.211,-14.848 -34.265,0 -52.121,8.559 -67.867,16.118 -11.293,5.421 -19.687,9.441 -37.098,9.972 l -0.785,10.297 -0.265,3.422 c 23.414,-0.449 35.414,-6.18 48.05,-12.238 14.2,-6.821 28.895,-13.871 57.965,-13.871 25.075,0 39.446,5.238 52.035,11.058 z m -223.367,11.621 -0.773,-10.3 c -17.274,-0.551 -25.652,-4.559 -36.906,-9.961 -15.75,-7.559 -33.594,-16.118 -67.868,-16.118 -32.375,0 -50.082,7.637 -65.211,14.848 -0.886,0.422 -1.773,0.852 -2.644,1.27 -2.41,1.152 -4.648,2.222 -6.863,3.211 -0.336,0.16 -0.672,0.3 -1.008,0.449 -2.965,1.293 -5.906,2.422 -9.074,3.359 l 9.543,7.981 0.156,0.14 0.383,0.321 2.648,2.21 c 4.969,-1.871 9.496,-4.011 14.102,-6.218 1.957,-0.942 3.925,-1.883 5.933,-2.813 12.59,-5.82 26.961,-11.058 52.035,-11.058 29.079,0 43.762,7.05 57.969,13.871 12.598,6.039 24.559,11.75 47.832,12.238 z m 46.7,46.02 5.238,-160.09 H 523.73 l 5.563,160.211 0.906,26.07 12.559,6.223 12.953,-6.426 z m 44.449,186.578 -25.797,5.25 v -0.008 l 35.449,-169.379 0.008,-0.051 -0.004,0.008 0.012,-0.058 -67.922,27.398 -67.926,-27.398 0.016,0.058 -0.004,-0.008 35.453,169.442 -25.785,-5.25 v 0.008 0 l 33.718,161.14 v 0 l -19.503,-3.968 41.921,224.207 h 4.215 l 41.922,-224.207 -19.504,3.968 v 0 z m 95.793,292.934 -3.516,-2.559 -21.113,15.344 -21.106,-15.344 -3.515,2.559 8.058,24.816 -21.105,15.336 1.34,4.137 h 26.093 l 8.063,24.812 h 4.348 l 8.066,-24.812 h 26.094 l 1.34,-4.137 -21.114,-15.336 z m 118.043,43.121 -3.516,-2.555 -21.113,15.34 -21.11,-15.34 -3.515,2.555 8.062,24.812 -21.109,15.34 1.344,4.137 h 26.093 l 8.063,24.816 h 4.344 l 8.066,-24.816 h 26.094 l 1.344,-4.137 -21.114,-15.34 z m 55.738,-2.969 1.348,4.137 h 26.093 l 8.063,24.812 h 4.344 l 8.066,-24.812 h 26.094 l 1.344,-4.137 -21.114,-15.336 8.067,-24.816 -3.516,-2.559 -21.113,15.344 -21.11,-15.344 -3.519,2.559 8.066,24.816 z m 134.174,10.543 c -12.983,75.226 -43.862,164.903 -117.237,164.903 -52.07,0 -76.25,-31.25 -84.671,-45.77 H 534.902 L 351.863,782.48 c 2.313,-2.035 4.52,-4.195 6.594,-6.472 3.715,-3.996 6.949,-8.41 9.793,-13.074 L 499.531,822.305 488.73,774.758 378.141,739.641 c 2.179,-8.172 3.25,-16.672 3.129,-25.254 -3.942,0.816 -7.461,1.843 -10.774,3.011 -3.734,1.317 -7.207,2.817 -10.656,4.422 -1.688,0.785 -3.371,1.594 -5.086,2.418 -3.258,1.563 -6.621,3.168 -10.242,4.723 -7.571,3.246 -16.301,6.215 -27.606,7.937 -1.551,0.235 -3.156,0.45 -4.812,0.637 -2.543,0.285 -5.215,0.508 -8.024,0.656 -2.429,0.133 -4.953,0.215 -7.601,0.231 -0.395,0.008 -0.766,0.019 -1.168,0.019 -0.391,0 -0.746,-0.011 -1.125,-0.019 -2.649,-0.016 -5.18,-0.098 -7.606,-0.231 -2.621,-0.14 -5.129,-0.336 -7.519,-0.593 -1.84,-0.2 -3.606,-0.434 -5.324,-0.696 -10.872,-1.652 -19.368,-4.461 -26.735,-7.554 -3.965,-1.672 -7.613,-3.418 -11.133,-5.11 -1.793,-0.863 -3.55,-1.703 -5.312,-2.519 -3.363,-1.563 -6.754,-3.024 -10.391,-4.309 -3.301,-1.164 -6.816,-2.191 -10.738,-3.012 -0.141,8.946 1.047,17.805 3.422,26.282 L 70.8438,787.805 c 0.0156,-16.621 0.7421,-33.102 2.0625,-49.43 -0.0196,0 -0.0391,0 -0.0586,0 0.1289,-1.66 0.3437,-3.285 0.4921,-4.937 0.3008,-3.415 0.543,-6.84 0.9024,-10.239 l 0.1211,0.016 c 0.2695,-2.547 0.4648,-5.125 0.7695,-7.652 0.7149,0.007 1.4141,0.027 2.1563,0.027 1.914,0 3.7304,-0.043 5.5,-0.106 0.3945,-0.015 0.7812,-0.035 1.1718,-0.054 1.5157,-0.071 2.9922,-0.16 4.4063,-0.274 0.1875,-0.015 0.3789,-0.027 0.5625,-0.043 3.4141,-0.3 6.5469,-0.722 9.457,-1.261 v 0.003 c 11.5663,-2.125 19.6293,-5.972 28.4723,-10.218 13.871,-6.66 29.59,-14.207 59.446,-14.207 29.847,0 45.57,7.547 59.441,14.207 4.277,2.051 8.363,4.011 12.754,5.726 8.082,3.172 17.219,5.504 30.387,6.075 1.316,0.058 2.679,0.097 4.086,0.121 0.777,0.011 1.523,0.031 2.328,0.031 0.789,0 1.519,-0.02 2.281,-0.031 1.488,-0.024 2.93,-0.067 4.324,-0.129 12.449,-0.559 21.278,-2.696 29.032,-5.621 4.839,-1.821 9.277,-3.942 13.929,-6.172 13.875,-6.66 29.602,-14.207 59.449,-14.207 29.86,0 45.582,7.547 59.454,14.207 3.316,1.59 6.515,3.125 9.832,4.539 l -5.004,-22.039 21.097,4.301 -5.035,-23.258 c -11.965,-2.684 -20.73,-6.867 -29.293,-10.981 -13.176,-6.32 -25.617,-12.293 -51.051,-12.293 -25.429,0 -37.875,5.973 -51.046,12.293 -14.204,6.813 -28.895,13.867 -57.969,13.867 -29.071,0 -43.754,-7.046 -57.957,-13.867 -13.168,-6.32 -25.61,-12.293 -51.039,-12.293 -25.434,0 -37.867,5.973 -51.035,12.293 -8.368,4.016 -17.004,8.114 -28.704,10.813 0,0 -0.003,0.019 -0.007,0.031 -0.594,0.137 -1.239,0.246 -1.844,0.375 -0.926,0.195 -1.844,0.395 -2.813,0.57 -1.062,0.2 -2.1872,0.367 -3.3043,0.535 -0.7188,0.114 -1.3868,0.247 -2.125,0.348 l -0.0039,-0.023 c -4.2383,0.578 -8.8282,0.98 -13.9258,1.136 1.125,-5.433 2.3281,-10.824 3.6133,-16.179 3.3632,-0.207 6.4414,-0.551 9.3398,-0.985 1.0547,-0.152 2.0781,-0.324 3.0781,-0.511 0.7071,-0.125 1.4298,-0.243 2.1138,-0.383 1.625,-0.34 3.203,-0.696 4.707,-1.09 0.152,-0.039 0.293,-0.082 0.445,-0.121 1.625,-0.438 3.191,-0.906 4.707,-1.402 6.492,-2.141 12.07,-4.786 17.797,-7.536 14.203,-6.82 28.886,-13.867 57.961,-13.867 29.066,0 43.754,7.051 57.961,13.867 13.172,6.325 25.605,12.293 51.035,12.293 25.437,0 37.879,-5.968 51.051,-12.293 14.203,-6.82 28.89,-13.867 57.964,-13.867 29.079,0 43.762,7.047 57.969,13.867 5.918,2.84 11.699,5.606 18.57,7.793 l -10.386,-47.984 c -6.176,-2.266 -11.508,-4.813 -16.594,-7.254 -13.359,-6.41 -24.906,-11.953 -49.559,-11.953 -24.648,0 -36.199,5.543 -49.562,11.953 -13.875,6.66 -29.598,14.207 -59.453,14.207 -29.848,0 -45.571,-7.547 -59.442,-14.207 -13.367,-6.41 -24.91,-11.953 -49.554,-11.953 -24.649,0 -36.192,5.543 -49.559,11.953 -3.336,1.606 -6.82,3.234 -10.512,4.813 0,0.011 -0.004,0.019 -0.007,0.031 -0.211,0.094 -0.446,0.176 -0.661,0.262 -0.464,0.195 -0.894,0.406 -1.367,0.601 l -0.019,-0.051 c -6.914,2.821 -14.801,5.364 -24.7308,6.922 2.7658,-8.441 5.7498,-16.847 8.8868,-25.226 l -0.055,-0.02 c 13.457,-35.957 30.371,-71.351 50.528,-105.906 0.918,-1.57 1.816,-3.141 2.742,-4.703 1.453,-2.45 2.945,-4.887 4.429,-7.328 1.098,-1.801 2.192,-3.61 3.305,-5.411 1.438,-2.308 2.899,-4.609 4.363,-6.914 1.231,-1.937 2.465,-3.879 3.719,-5.812 1.414,-2.184 2.848,-4.36 4.289,-6.531 1.383,-2.09 2.782,-4.176 4.192,-6.254 1.367,-2.024 2.742,-4.039 4.129,-6.059 1.589,-2.297 3.203,-4.594 4.824,-6.887 1.277,-1.808 2.547,-3.613 3.84,-5.421 1.906,-2.645 3.847,-5.29 5.793,-7.922 1.07,-1.453 2.125,-2.907 3.203,-4.36 3.066,-4.097 6.168,-8.176 9.324,-12.246 76.719,-98.711 182.512,-188.898 314.426,-268.058 l 11.367,-6.832 11.363,6.832 c 131.918,79.16 237.707,169.347 314.422,268.058 0.109,0.141 0.203,0.27 0.313,0.41 4.765,6.141 9.394,12.317 13.929,18.524 0.574,0.781 1.153,1.554 1.727,2.34 4.578,6.316 9.047,12.664 13.398,19.05 0.364,0.539 0.731,1.075 1.098,1.618 9.242,13.613 17.992,27.371 26.187,41.277 21.414,36.379 39.207,73.695 53.184,111.641 l -0.07,0.031 c 2.715,7.344 5.328,14.711 7.754,22.109 -9.926,-1.558 -17.801,-4.097 -24.715,-6.914 l -0.02,0.043 c -0.437,-0.18 -0.82,-0.371 -1.25,-0.547 -0.261,-0.105 -0.539,-0.211 -0.793,-0.316 -0.004,-0.012 -0.008,-0.028 -0.015,-0.035 -3.68,-1.578 -7.161,-3.207 -10.493,-4.809 -13.363,-6.41 -24.906,-11.953 -49.554,-11.953 -24.649,0 -36.192,5.543 -49.551,11.953 -13.871,6.66 -29.602,14.207 -59.449,14.207 -29.86,0 -45.574,-7.547 -59.453,-14.207 -13.364,-6.41 -24.907,-11.953 -49.563,-11.953 -24.652,0 -36.195,5.543 -49.558,11.953 -5.082,2.441 -10.418,4.992 -16.598,7.254 l -19.227,88.852 21.094,-4.301 v 0.008 h 0.004 l -12.754,56.136 69.121,68.563 45.57,-33.481 71.364,72.075 71.355,-72.075 45.492,33.418 81.684,-82.816 20.54,-20.82 c 0.97,7.195 1.78,14.457 2.5,21.757 l 0.05,-0.004 c 0.1,1.008 0.15,2.036 0.24,3.043 0.14,1.497 0.31,2.977 0.44,4.477 l -0.08,0.074 c 4.52,53.879 1.99,109.52 -7.68,165.555" /><path
         id="path34"
         style="fill:#231f20;fill-opacity:1;fill-rule:nonzero;stroke:none"
         d="m 726.242,506.074 c 2.496,1.004 4.887,2.063 7.203,3.137 v 17.703 c -0.394,-0.191 -0.804,-0.387 -1.199,-0.574 -2.004,-0.957 -3.988,-1.906 -6.004,-2.832 -11.254,-5.164 -23.472,-9.461 -45.047,-9.461 -23.515,0 -35.925,5.109 -48.078,10.875 V 507.34 c 11.711,-5.07 25.582,-9.289 48.078,-9.289 20.586,0 33.95,3.543 45.047,8.023" /><path
         id="path36"
         style="fill:#231f20;fill-opacity:1;fill-rule:nonzero;stroke:none"
         d="m 726.242,458.516 c -11.254,-5.161 -23.472,-9.457 -45.047,-9.457 -16.519,0 -27.543,2.523 -36.859,6.019 v -16.933 c 9.531,-2.997 21.062,-5.086 36.859,-5.086 20.586,0 33.95,3.543 45.047,8.027 2.496,1.004 4.887,2.059 7.203,3.133 v 17.707 c -0.394,-0.196 -0.804,-0.387 -1.199,-0.578 -2.004,-0.957 -3.988,-1.907 -6.004,-2.832" /><path
         id="path38"
         style="fill:#231f20;fill-opacity:1;fill-rule:nonzero;stroke:none"
         d="m 726.242,393.648 c -11.254,-5.16 -23.472,-9.468 -45.047,-9.468 -8.422,0 -15.406,0.672 -21.472,1.781 V 369.73 c 6.226,-0.968 13.261,-1.539 21.472,-1.539 20.586,0 33.95,3.539 45.047,8.028 2.496,1 4.887,2.062 7.203,3.133 v 17.699 c -0.394,-0.192 -0.804,-0.379 -1.199,-0.571 -2.004,-0.96 -3.988,-1.91 -6.004,-2.832" /><path
         id="path40"
         style="fill:#231f20;fill-opacity:1;fill-rule:nonzero;stroke:none"
         d="m 154.555,983.84 9.015,-6.141 93.621,127.861 v 16.31 H 241.738 L 154.555,983.84" /><path
         id="path42"
         style="fill:#231f20;fill-opacity:1;fill-rule:nonzero;stroke:none"
         d="m 684.949,660.793 v 55.023 h -23.136 v -13.367 h 7.648 v -41.656 h 15.488" /><path
         id="path44"
         style="fill:#231f20;fill-opacity:1;fill-rule:nonzero;stroke:none"
         d="m 750.313,671.672 c -3.079,0 -5.583,2.562 -5.583,5.723 0,3.226 2.504,5.859 5.583,5.859 3.074,0 5.574,-2.633 5.574,-5.859 0,-3.161 -2.5,-5.723 -5.574,-5.723 z m 0,24.59 c -2.797,0 -5.079,2.336 -5.079,5.218 0,2.883 2.282,5.223 5.079,5.223 2.796,0 5.078,-2.34 5.078,-5.223 0,-2.882 -2.282,-5.218 -5.078,-5.218 z m -21.208,-20.641 c 0,-11.012 10.926,-16.953 21.208,-16.953 10.277,0 21.207,5.941 21.207,16.953 0,6.442 -3.418,11.504 -9.454,14.129 4.403,2.227 7.254,6.898 7.254,12.16 0,11.016 -9.851,16.028 -19.007,16.028 -9.157,0 -19.004,-5.012 -19.004,-16.028 0,-5.262 2.847,-9.933 7.25,-12.16 -6.036,-2.625 -9.454,-7.687 -9.454,-14.129" /><path
         id="path46"
         style="fill:#231f20;fill-opacity:1;fill-rule:nonzero;stroke:none"
         d="m 833.27,687.148 c 4.355,0 7.773,-3.476 7.773,-7.914 0,-4.523 -3.418,-8.062 -7.773,-8.062 -4.403,0 -7.993,3.617 -7.993,8.062 0,4.364 3.59,7.914 7.993,7.914 z m -2.665,28.668 -11.714,-15.336 c -3.989,-5.21 -8.746,-13.218 -8.746,-21.742 0,-5.597 2.851,-11.453 7.468,-15.297 3.817,-3.031 9.555,-4.773 15.727,-4.773 11.441,0 23.754,6.57 23.754,20.988 0,9.489 -6.289,19.578 -17.946,19.578 -1.835,0 -3.523,-0.242 -5.257,-0.757 l 14.554,17.339 h -17.84" /><path
         id="path48"
         style="fill:#231f20;fill-opacity:1;fill-rule:nonzero;stroke:none"
         d="m 914.098,671.672 c -3.075,0 -5.578,2.562 -5.578,5.723 0,3.226 2.503,5.859 5.578,5.859 3.074,0 5.578,-2.633 5.578,-5.859 0,-3.161 -2.504,-5.723 -5.578,-5.723 z m 0,24.59 c -2.801,0 -5.078,2.336 -5.078,5.218 0,2.883 2.277,5.223 5.078,5.223 2.8,0 5.082,-2.34 5.082,-5.223 0,-2.882 -2.282,-5.218 -5.082,-5.218 z m -21.203,-20.641 c 0,-11.012 10.921,-16.953 21.203,-16.953 10.281,0 21.203,5.941 21.203,16.953 0,6.442 -3.418,11.504 -9.453,14.129 4.406,2.227 7.261,6.898 7.261,12.16 0,11.016 -9.859,16.028 -19.011,16.028 -9.153,0 -19.004,-5.012 -19.004,-16.028 0,-5.262 2.844,-9.933 7.254,-12.16 -6.035,-2.625 -9.453,-7.687 -9.453,-14.129" /><path
         id="path50"
         style="fill:#f1491c;fill-opacity:1;fill-rule:nonzero;stroke:none"
         d="m 1474.41,878.977 c 0,123.953 -27.47,171.523 -87.77,171.523 -60.97,0 -88.44,-47.57 -88.44,-171.523 0,-123.286 27.47,-171.528 88.44,-171.528 60.3,0 87.77,48.242 87.77,171.528 z m -276.72,0 c 0,125.963 68.35,203.683 188.95,203.683 119.93,0 188.28,-77.72 188.28,-203.683 0,-125.965 -68.35,-203.684 -188.28,-203.684 -120.6,0 -188.95,77.719 -188.95,203.684" /><path
         id="path52"
         style="fill:#f1491c;fill-opacity:1;fill-rule:nonzero;stroke:none"
         d="m 1763.85,702.766 -8.71,-20.774 h -163.49 v 18.762 l 27.48,12.059 v 182.914 l -28.14,44.218 v 7.375 l 101.17,33.5 h 14.06 l -2,-68.343 h 2.67 c 13.41,34.168 39.54,68.343 83.76,68.343 35.51,0 56.95,-20.769 56.95,-53.601 0,-30.153 -20.77,-48.914 -46.23,-48.914 -28.81,0 -46.23,19.429 -46.23,46.898 -16.75,-7.367 -32.84,-22.777 -48.25,-42.879 V 715.492 l 56.96,-12.726" /><path
         id="path54"
         style="fill:#f1491c;fill-opacity:1;fill-rule:nonzero;stroke:none"
         d="m 1927.99,865.574 h 94.47 c 1.34,5.364 2.01,14.074 2.01,24.793 0,31.488 -8.71,59.629 -40.2,59.629 -29.48,0 -50.92,-27.469 -56.28,-84.422 z m 83.75,-134.004 c 30.15,0 47.58,7.375 72.37,26.133 l 12.73,-14.738 c -21.45,-48.242 -62.32,-67.672 -119.27,-67.672 -76.38,0 -136.68,48.91 -136.68,148.738 0,101.172 68.34,156.789 149.41,156.789 65.67,0 111.23,-38.191 111.23,-108.547 0,-10.714 -0.68,-25.457 -3.36,-38.187 h -171.52 c 1.34,-60.973 28.14,-102.516 85.09,-102.516" /><path
         id="path56"
         style="fill:#f1491c;fill-opacity:1;fill-rule:nonzero;stroke:none"
         d="m 2250.92,950.668 c -34.17,0 -40.2,-26.133 -40.2,-69.684 0,-42.879 6.03,-69.011 40.2,-69.011 34.84,0 40.87,26.132 40.87,69.011 0,43.551 -6.03,69.684 -40.87,69.684 z m -69.01,-335.68 c 0,-35.508 26.13,-52.258 72.36,-52.258 52.93,0 93.13,14.743 93.13,56.954 0,25.457 -13.4,40.867 -52.93,40.867 h -84.42 c -17.42,-9.379 -28.14,-24.121 -28.14,-45.563 z m 134,125.293 c 63.65,0 103.85,-30.816 103.85,-95.14 0,-81.743 -81.06,-111.895 -169.51,-111.895 -81.74,0 -142.04,18.766 -142.04,70.352 0,38.195 30.15,55.617 75.71,62.316 v 2.008 c -38.19,4.691 -59.63,26.801 -59.63,61.644 0,34.836 26.13,55.61 62.98,62.977 -38.19,13.398 -62.31,40.199 -62.31,83.75 0,58.965 44.22,104.527 128.64,104.527 34.84,0 75.72,-6.703 107.2,-22.113 -2.68,4.023 -4.01,9.379 -4.01,16.082 0,21.441 16.08,34.841 36.85,34.841 21.44,0 36.85,-14.743 36.85,-38.189 0,-25.464 -16.76,-39.531 -40.88,-39.531 -17.41,0 -33.5,6.699 -52.93,14.067 v -6.7 c 23.46,-10.718 39.54,-33.5 39.54,-63.652 0,-64.32 -64.33,-93.129 -123.29,-93.129 -14.74,0 -28.14,1.336 -40.87,4.688 -14.07,-4.688 -24.79,-12.063 -24.79,-26.797 0,-13.407 8.04,-20.106 24.12,-20.106 h 104.52" /><path
         id="path58"
         style="fill:#f1491c;fill-opacity:1;fill-rule:nonzero;stroke:none"
         d="m 2554.43,706.113 c 44.89,0 56.95,44.219 56.95,121.946 0,77.718 -12.06,121.937 -56.95,121.937 -44.89,0 -56.95,-44.219 -56.95,-121.937 0,-77.727 12.06,-121.946 56.95,-121.946 z m 0,-30.82 c -90.45,0 -150.09,51.594 -150.09,152.766 0,101.171 59.64,152.761 150.09,152.761 90.45,0 150.08,-51.59 150.08,-152.761 0,-101.172 -59.63,-152.766 -150.08,-152.766" /><path
         id="path60"
         style="fill:#f1491c;fill-opacity:1;fill-rule:nonzero;stroke:none"
         d="m 3056.26,701.422 -8.71,-19.43 h -146.74 v 18.762 l 27.48,12.726 v 146.067 c 0,43.551 -22.79,58.289 -47.58,58.289 -22.78,0 -40.87,-11.391 -52.93,-22.777 V 714.156 l 39.53,-12.734 -8.71,-19.43 h -146.06 v 18.762 l 27.47,12.059 v 183.585 l -28.14,44.215 v 7.375 l 101.17,32.832 h 14.07 l -2.01,-58.293 h 2.68 c 24.12,38.192 57.62,58.293 102.51,58.293 48.91,0 86.44,-34.175 86.44,-102.515 V 714.156 l 39.53,-12.734" /><path
         id="path62"
         style="fill:#f1491c;fill-opacity:1;fill-rule:nonzero;stroke:none"
         d="m 3326.24,761.723 c 0,36.183 -18.76,53.605 -62.97,71.019 l -48.25,20.106 c -49.58,20.097 -78.39,53.597 -78.39,115.238 0,79.734 61.65,114.574 126.64,114.574 35.5,0 64.32,-8.04 85.09,-14.74 l 32.83,14.74 6.03,-111.219 -18.09,-4.023 -32.16,42.212 c -20.11,28.14 -40.87,42.88 -75.72,42.88 -31.48,0 -52.93,-20.1 -52.93,-50.92 0,-30.824 14.07,-48.914 54.28,-64.992 l 50.25,-20.098 c 62.98,-24.797 90.45,-60.973 90.45,-122.613 0,-80.407 -60.97,-118.594 -132.67,-118.594 -48.24,0 -73.7,12.062 -92.46,21.441 l -36.18,-21.441 -11.39,127.301 20.77,4.023 32.83,-47.574 c 22.11,-34.172 46.9,-52.262 85.1,-52.262 35.5,0 56.94,20.106 56.94,54.942" /><path
         id="path64"
         style="fill:#f1491c;fill-opacity:1;fill-rule:nonzero;stroke:none"
         d="m 3408.64,961.387 107.2,91.793 h 20.1 v -79.063 h 88.44 l -4.69,-34.84 h -83.08 V 781.152 c 0,-38.855 14.74,-53.597 41.54,-53.597 17.42,0 30.82,4.015 49.58,14.066 l 6.7,-16.078 c -20.77,-31.488 -54.27,-50.25 -97.15,-50.25 -52.26,0 -88.44,26.129 -88.44,94.473 v 169.511 h -40.2 v 22.11" /><path
         id="path66"
         style="fill:#f1491c;fill-opacity:1;fill-rule:nonzero;stroke:none"
         d="m 3785.17,812.648 c -39.53,0 -62.31,-10.054 -62.31,-45.562 0,-24.789 14.74,-41.543 38.19,-41.543 14.74,0 26.8,3.348 38.86,14.07 v 73.035 z m 102.51,-66.335 c 0,-30.153 10.72,-36.848 42.21,-33.5 l 2.01,-13.399 c -16.74,-16.086 -38.86,-24.121 -70.35,-24.121 -28.81,0 -52.93,12.062 -58.29,42.883 l -2.01,0.668 c -14.07,-30.153 -44.89,-43.551 -81.07,-43.551 -44.89,0 -81.74,24.789 -81.74,80.398 0,58.961 46.9,87.778 121.27,87.778 14.07,0 29.48,-2.684 40.2,-5.364 v 25.458 c 0,38.863 -24.79,58.292 -64.32,58.292 -28.14,0 -51.59,-5.355 -79.73,-20.097 l -8.04,19.43 c 28.81,38.863 75.04,59.632 129.98,59.632 55.61,0 109.88,-24.797 109.88,-106.535 V 746.313" /><path
         id="path68"
         style="fill:#f1491c;fill-opacity:1;fill-rule:nonzero;stroke:none"
         d="m 3899.73,961.387 107.2,91.793 h 20.1 v -79.063 h 88.44 l -4.69,-34.84 H 4027.7 V 781.152 c 0,-38.855 14.74,-53.597 41.54,-53.597 17.42,0 30.82,4.015 49.58,14.066 l 6.7,-16.078 c -20.77,-31.488 -54.27,-50.25 -97.15,-50.25 -52.26,0 -88.44,26.129 -88.44,94.473 v 169.511 h -40.2 v 22.11" /><path
         id="path70"
         style="fill:#f1491c;fill-opacity:1;fill-rule:nonzero;stroke:none"
         d="m 4206.58,865.574 h 94.47 c 1.34,5.364 2.01,14.074 2.01,24.793 0,31.488 -8.71,59.629 -40.2,59.629 -29.48,0 -50.92,-27.469 -56.28,-84.422 z m 83.75,-134.004 c 30.15,0 47.57,7.375 72.36,26.133 l 12.73,-14.738 c -21.44,-48.242 -62.31,-67.672 -119.26,-67.672 -76.38,0 -136.68,48.91 -136.68,148.738 0,101.172 68.34,156.789 149.41,156.789 65.67,0 111.23,-38.191 111.23,-108.547 0,-10.714 -0.68,-25.457 -3.36,-38.187 h -171.52 c 1.34,-60.973 28.14,-102.516 85.09,-102.516" /><path
         id="path72"
         style="fill:#231f20;fill-opacity:1;fill-rule:nonzero;stroke:none"
         d="m 1538.73,285.43 c 0,-97.821 -64.99,-147.399 -150.08,-147.399 -90.45,0 -152.76,36.18 -152.76,140.028 v 223.789 l -49.58,15.41 4.69,21.437 h 151.42 l 5.36,-21.437 -50.25,-15.41 V 287.441 c 0,-76.382 32.16,-111.89 96.48,-111.89 62.31,0 105.19,35.508 105.19,116.578 v 209.719 l -50.25,15.41 5.37,21.437 h 129.3 l 5.36,-21.437 -50.25,-15.41 V 285.43" /><path
         id="path74"
         style="fill:#231f20;fill-opacity:1;fill-rule:nonzero;stroke:none"
         d="m 1883.77,164.16 -8.71,-19.43 h -128.64 v 18.758 l 31.49,11.391 v 165.492 c 0,42.879 -26.8,51.59 -49.58,51.59 -26.8,0 -52.93,-13.402 -68.34,-26.801 V 176.891 l 46.9,-12.731 -8.71,-19.43 h -128.64 v 18.758 l 31.49,10.723 V 369.18 l -32.16,36.179 v 7.371 l 80.4,30.825 h 10.05 l -2.01,-56.953 h 2.68 c 26.8,44.218 67.67,56.953 97.82,56.953 38.86,0 79.06,-23.453 79.06,-91.793 V 176.891 l 46.9,-12.731" /><path
         id="path76"
         style="fill:#231f20;fill-opacity:1;fill-rule:nonzero;stroke:none"
         d="m 1951.43,572.867 c 23.45,0 41.54,-18.094 41.54,-41.543 0,-23.449 -18.09,-41.539 -41.54,-41.539 -23.45,0 -41.54,18.09 -41.54,41.539 0,23.449 18.09,41.543 41.54,41.543 z m 77.05,-408.707 -8.71,-19.43 h -128.64 v 18.758 l 31.49,10.723 V 369.18 l -32.16,36.179 v 7.371 l 80.4,30.825 h 10.72 V 176.891 l 46.9,-12.731" /><path
         id="path78"
         style="fill:#231f20;fill-opacity:1;fill-rule:nonzero;stroke:none"
         d="m 2231.48,402.68 -44.22,14.742 4.02,19.43 h 108.54 l 4.02,-19.43 -30.82,-12.731 -101.84,-259.961 h -33.5 l -106.53,256.614 -28.82,18.09 4.7,17.418 h 123.28 l 4.69,-20.098 -42.88,-10.723 46.9,-117.922 c 16.08,-40.199 24.12,-81.07 24.12,-81.07 h 2.68 c 0,0 8.71,40.199 24.79,81.742 l 40.87,113.899" /><path
         id="path80"
         style="fill:#231f20;fill-opacity:1;fill-rule:nonzero;stroke:none"
         d="m 2342.03,332.332 h 122.61 c 0.67,4.688 0.67,13.398 0.67,18.09 0,42.207 -16.75,64.32 -51.59,64.32 -32.16,0 -62.31,-25.461 -71.69,-82.41 z m 88.44,-150.754 c 32.83,0 56.28,8.711 83.08,27.473 l 8.71,-15.41 c -24.12,-36.852 -58.29,-55.61 -109.88,-55.61 -71.7,0 -128.65,49.578 -128.65,150.078 0,99.832 62.98,155.446 138.03,155.446 60.3,0 103.85,-37.524 103.85,-105.196 0,-10.718 -0.67,-22.109 -3.35,-34.839 h -182.25 c 0,-77.051 34.17,-121.942 90.46,-121.942" /><path
         id="path82"
         style="fill:#231f20;fill-opacity:1;fill-rule:nonzero;stroke:none"
         d="m 2687.07,164.832 -8.71,-20.102 h -142.04 v 18.758 l 31.49,10.723 V 369.18 l -32.16,36.179 v 7.371 l 80.4,30.825 h 10.05 l -2.01,-69.016 h 2.68 c 16.75,37.524 46.9,69.684 85.09,69.684 31.49,0 49.58,-17.422 49.58,-43.547 0,-26.805 -18.09,-40.875 -38.86,-40.875 -24.12,0 -38.19,17.418 -38.19,40.875 -22.78,-8.715 -40.87,-28.817 -57.62,-53.606 V 176.891 l 60.3,-12.059" /><path
         id="path84"
         style="fill:#231f20;fill-opacity:1;fill-rule:nonzero;stroke:none"
         d="m 2778.86,239.199 c 28.14,-60.301 54.27,-75.711 90.45,-75.711 30.15,0 50.25,10.723 50.25,42.211 0,25.461 -14.74,39.531 -48.24,50.922 l -38.19,13.399 c -40.2,14.07 -66.33,38.859 -66.33,88.441 0,57.625 41.54,85.094 97.82,85.094 13.4,0 40.2,-4.692 53.6,-12.063 l 32.16,11.391 5.36,-85.762 -14.07,-4.691 c -28.81,49.582 -52.26,63.656 -81.07,63.656 -28.14,0 -45.56,-16.086 -45.56,-40.207 0,-24.117 12.06,-39.527 44.89,-50.918 l 38.19,-12.731 c 44.22,-15.41 71.69,-38.859 71.69,-89.781 0,-59.629 -44.89,-84.418 -104.52,-84.418 -27.47,0 -50.25,8.028 -66.33,15.41 l -30.15,-15.41 -6.03,96.481 16.08,4.687" /><path
         id="path86"
         style="fill:#231f20;fill-opacity:1;fill-rule:nonzero;stroke:none"
         d="m 3048.19,572.867 c 23.45,0 41.54,-18.094 41.54,-41.543 0,-23.449 -18.09,-41.539 -41.54,-41.539 -23.45,0 -41.55,18.09 -41.55,41.539 0,23.449 18.1,41.543 41.55,41.543 z m 77.05,-408.707 -8.71,-19.43 h -128.64 v 18.758 l 31.48,10.723 V 369.18 l -32.15,36.179 v 7.371 l 80.4,30.825 h 10.72 V 176.891 l 46.9,-12.731" /><path
         id="path88"
         style="fill:#231f20;fill-opacity:1;fill-rule:nonzero;stroke:none"
         d="m 3110.48,424.121 83.76,92.461 h 13.4 v -79.73 h 97.82 l -4.69,-31.493 h -93.13 V 231.16 c 0,-37.519 16.08,-52.93 44.21,-52.93 18.77,0 34.18,4.02 54.28,14.071 l 6.7,-16.75 c -22.11,-24.121 -47.57,-37.52 -91.12,-37.52 -44.89,0 -73.03,23.438 -73.03,83.078 v 184.25 h -38.2 v 18.762" /><path
         id="path90"
         style="fill:#231f20;fill-opacity:1;fill-rule:nonzero;stroke:none"
         d="m 3306.11,401.344 -28.81,18.09 4.69,17.418 h 123.96 l 4.68,-20.098 -42.88,-10.723 47.58,-125.961 c 18.76,-50.25 22.11,-85.09 22.11,-85.09 h 2.68 c 0,0 11.38,42.879 25.46,85.758 l 39.53,121.942 -44.23,14.742 4.03,19.43 h 107.2 l 4.02,-19.43 -30.82,-12.731 -93.13,-253.929 C 3409.97,36.1914 3374.45,0 3319.51,0 c -34.84,0 -53.6,20.1016 -53.6,45.5703 0,24.1094 14.74,38.8516 38.19,38.8516 20.77,0 34.17,-14.7422 34.17,-34.1719 0,-10.0391 -3.35,-18.0898 -6.7,-22.7695 26.8,0 61.64,48.9101 80.4,107.1995 l -105.86,266.664" /></g></g></svg>
