<svg width="14" height="14" viewBox="0 0 14 14" fill="none" xmlns="http://www.w3.org/2000/svg">
<circle r="1.75" transform="matrix(1 0 0 -1 1.75 12.25)" fill="#C4C4C4"/>
<circle r="1.75" transform="matrix(1 0 0 -1 1.75 7)" fill="#C4C4C4"/>
<circle r="1.75" transform="matrix(1 0 0 -1 1.75 1.75)" fill="#C4C4C4"/>
<circle r="1.75" transform="matrix(1 0 0 -1 7 12.25)" fill="#C4C4C4"/>
<circle r="1.75" transform="matrix(1 0 0 -1 7 7)" fill="#C4C4C4"/>
<circle r="1.75" transform="matrix(1 0 0 -1 7 1.75)" fill="#C4C4C4"/>
<circle r="1.75" transform="matrix(1 0 0 -1 12.25 12.25)" fill="#C4C4C4"/>
<circle r="1.75" transform="matrix(1 0 0 -1 12.25 7)" fill="#C4C4C4"/>
<circle r="1.75" transform="matrix(1 0 0 -1 12.25 1.75)" fill="#C4C4C4"/>
</svg>
