<svg width="53" height="66" viewBox="0 0 53 66" fill="none" xmlns="http://www.w3.org/2000/svg">
<path d="M51.8891 23.329C51.5901 21.3309 50.999 19.3877 50.1348 17.5616C49.5376 16.3187 48.6919 15.2113 47.6501 14.3079C46.3236 13.1794 44.6383 12.5608 42.8968 12.5632C42.0841 12.5589 41.2749 12.6706 40.4937 12.8949L43.0602 7.40625L37.8263 3.69592H34.0487C33.4047 3.69592 32.703 3.2153 31.8091 2.59051C30.2278 1.49471 28.0651 0 24.4124 0C21.3221 0 18.8902 0.860298 16.9629 2.62895C16.9629 2.62895 4.46696 14.8077 4.40928 14.8798C3.64122 15.6731 3.00372 16.5832 2.52047 17.576C1.6584 19.403 1.06743 21.3459 0.766234 23.3434C-0.0764259 27.9924 0.0874615 32.7681 1.24685 37.3485C2.5745 42.1806 4.86298 46.6955 7.97543 50.623C11.9261 55.7031 17.3234 60.317 24.0231 64.3397L26.3253 65.7191L28.6226 64.3397C35.3223 60.317 40.7244 55.6887 44.6703 50.623C47.7827 46.6955 50.0712 42.1806 51.3989 37.3485C52.5635 32.7642 52.7307 27.9834 51.8891 23.329Z" fill="white"/>
<path d="M22.6347 18.1816H15.6706L15.041 28.6686C15.4251 28.7255 15.7989 28.8371 16.1512 29.0002L22.6347 18.1816Z" fill="black"/>
<path d="M17.2227 41.9634H17.165V42.7756L17.5111 42.9246C18.1984 43.1985 18.9343 43.3293 19.6738 43.3091C20.4679 43.3321 21.2573 43.1794 21.9856 42.8621V42.0355C21.2704 42.3987 20.4757 42.5771 19.6738 42.5545C18.9273 42.5772 18.1861 42.4224 17.5111 42.1028L17.2227 41.9634Z" fill="black"/>
<path d="M17.5111 45.2257L17.2227 45.0863H17.165V45.937L17.5111 46.086C18.1984 46.3599 18.9343 46.4907 19.6738 46.4705C20.2742 46.4816 20.8725 46.3989 21.4473 46.2254V45.3891C20.8795 45.5958 20.2779 45.6937 19.6738 45.6775C18.9273 45.7001 18.1861 45.5453 17.5111 45.2257Z" fill="black"/>
<path d="M17.5111 48.3398L17.2227 48.2052L17.165 48.1764V49.0223C17.2756 49.0751 17.3909 49.128 17.5111 49.1761C18.199 49.4476 18.9345 49.5784 19.6738 49.5606C20.0196 49.5615 20.3649 49.5374 20.7072 49.4885V48.7051C20.366 48.7649 20.0202 48.7938 19.6738 48.7916C18.9271 48.817 18.1852 48.6621 17.5111 48.3398Z" fill="black"/>
<path d="M25.3394 3.73436C25.9168 3.85928 26.4757 4.05796 27.0024 4.32551C27.532 4.59295 28.037 4.90656 28.5115 5.26271C29.2509 5.84506 30.0245 6.3827 30.828 6.87276V5.55588C30.2369 5.23387 29.6505 4.84458 29.0402 4.46008C28.4961 4.11707 27.9237 3.82121 27.3292 3.57576C26.7253 3.33789 26.094 3.17644 25.45 3.09514C24.8125 3.0118 24.1678 2.9989 23.5275 3.05669H23.417V3.56614H23.5468C24.1485 3.56019 24.7493 3.61657 25.3394 3.73436Z" fill="black"/>
<path d="M51.1303 23.4588C50.8442 21.5407 50.2775 19.6751 49.4481 17.9221C48.9009 16.767 48.1203 15.7377 47.1556 14.8991C45.967 13.8887 44.4573 13.3349 42.8974 13.3371C41.9037 13.3204 40.917 13.5061 39.9974 13.8828C39.0778 14.2596 38.2445 14.8196 37.5481 15.5287L35.2268 13.0247L35.6017 12.2172H38.7593L38.3844 13.0247H39.5956L42.0995 7.68986L37.5818 4.47936H34.0493C33.1649 4.47936 32.3719 3.93146 31.3723 3.23458C29.791 2.14358 27.8253 0.783447 24.413 0.783447C21.5293 0.783447 19.2656 1.57165 17.4873 3.18651L9.47551 11.0061C9.47551 11.0061 4.97217 15.4037 4.96255 15.4181C4.25137 16.1556 3.66097 17.0007 3.21312 17.9221C2.38379 19.6751 1.817 21.5407 1.53098 23.4588C0.712265 27.9986 0.87615 32.6611 2.01159 37.1322C3.31605 41.8672 5.56203 46.2906 8.61522 50.1376C12.5034 55.1408 17.8286 59.6922 24.4755 63.6669L26.3979 64.8059L28.2963 63.6669C34.9192 59.6922 40.2492 55.1408 44.1566 50.1376C47.2098 46.2906 49.4557 41.8672 50.7602 37.1322C51.859 32.6532 51.9852 27.9907 51.1303 23.4588ZM18.2419 3.98914C18.8138 3.46527 20.5537 1.86483 24.413 1.86483C27.4841 1.86483 29.2191 3.06636 30.7475 4.12371C31.8625 4.8975 32.8237 5.56555 34.0493 5.56555H37.2502L40.7394 8.04551L39.2976 11.1359H36.1399C35.6769 11.1074 35.2353 10.9304 34.8807 10.6312C34.653 10.4303 34.4674 10.1863 34.3346 9.91327C34.2018 9.64021 34.1244 9.34353 34.1069 9.04038H33.5542C33.533 9.42409 33.5819 9.80845 33.6984 10.1746C33.8237 10.559 34.0284 10.9126 34.2992 11.2128C34.4199 11.3455 34.5517 11.4677 34.6933 11.578L33.9195 13.2409L36.0534 15.5527H34.4338L31.6222 13.1496H30.9685L33.0352 15.5527H28.8827L26.4796 13.1496H25.0378C25.323 12.506 25.4859 11.815 25.5184 11.1118C25.5184 10.9821 25.5184 10.8571 25.5184 10.7273L25.4895 10.3428V10.1554L25.4559 9.96316L25.3886 9.58828C25.2716 9.08594 25.089 8.60117 24.8455 8.14644C24.6005 7.70229 24.2965 7.29327 23.942 6.93049L23.8122 6.79592L23.668 6.67096L23.3845 6.43065C23.1853 6.27813 22.9766 6.13847 22.7597 6.01252C22.0874 5.62145 21.3378 5.38197 20.5633 5.31082C20.3477 5.28875 20.131 5.28072 19.9144 5.28679V5.81547C20.8044 5.84233 21.6702 6.11153 22.4184 6.59406C22.6027 6.71247 22.7793 6.8425 22.9471 6.98336C23.0288 7.05545 23.1057 7.13235 23.1826 7.20925L23.3028 7.31979L23.4085 7.44475C23.697 7.77061 23.9396 8.13445 24.1294 8.52613C24.3146 8.9141 24.4487 9.32444 24.5283 9.74689L24.5716 10.0689V10.2275V10.7081C24.5716 10.8138 24.5716 10.9196 24.5716 11.0253C24.493 11.8727 24.1801 12.6814 23.668 13.3611L23.0192 14.231H26.0182L27.3207 15.5335H14.9833V11.0061H11.0471L18.2419 3.98914ZM12.686 19.9695C12.4802 20.782 12.0286 21.5111 11.3929 22.0573C10.7572 22.6035 9.96845 22.9402 9.13428 23.0214C9.00451 23.0214 8.86994 23.0214 8.73056 23.0214C7.69824 23.0203 6.70473 22.6279 5.95023 21.9233C5.19572 21.2188 4.73631 20.2544 4.66457 19.2246C4.66457 19.1333 4.66457 19.0419 4.66457 18.9506C4.66612 18.394 4.78114 17.8435 5.0026 17.3328C5.22406 16.8222 5.54732 16.362 5.95262 15.9804L9.9321 12.0971H13.902V16.0045L12.686 19.9695ZM49.6067 36.8535C48.8562 39.6325 47.7531 42.304 46.3241 44.8028L46.0934 45.1777L45.9204 45.4709L45.6897 45.8506L45.4879 46.1726L45.2716 46.5234C45.137 46.7301 45.0025 46.9367 44.8631 47.1434L44.6997 47.3837L44.3873 47.8355L44.2046 48.095L43.873 48.5756L43.7096 48.8015C43.5414 49.0226 43.378 49.2437 43.229 49.4648L42.7484 50.0751C40.8662 52.393 38.7748 54.5328 36.5004 56.4673C34.6752 58.0176 32.7624 59.4618 30.7715 60.7928C29.8103 61.4513 28.7721 62.1001 27.7196 62.7153L26.3835 63.5179L25.0426 62.7153C18.5399 58.8127 13.3156 54.3526 9.50916 49.4552L9.18234 49.0226L8.96126 48.7342L8.57196 48.1959L8.43739 48.0085C8.2884 47.8018 8.14902 47.5952 8.00484 47.3885L7.93275 47.2828C7.77895 47.0521 7.62515 46.8022 7.45213 46.5907C7.4536 46.5779 7.4536 46.565 7.45213 46.5523C5.51533 43.5601 4.05603 40.2848 3.12661 36.8439C2.01112 32.5325 1.83411 28.0319 2.60755 23.6462C2.82165 22.3209 3.15626 21.0178 3.60723 19.7533C3.73477 20.5581 4.04916 21.3219 4.5252 21.9833C4.3714 22.5793 4.24163 23.2089 4.11668 23.9058C3.92763 25.0016 3.79627 26.0893 3.72257 27.1691L10.9558 30.5334C11.0763 30.3381 11.2129 30.1532 11.3643 29.9807C11.4752 29.8594 11.5923 29.7439 11.7152 29.6347L7.34159 23.9298C8.1237 24.1534 8.9485 24.183 9.74466 24.0163L12.7389 29.0003C13.0912 28.8372 13.4651 28.7255 13.8491 28.6686L13.4021 21.2335C13.5573 20.9269 13.6797 20.6047 13.7674 20.2723L14.8247 16.7879L14.8632 16.6629H38.0239L38.1874 16.4803C38.7802 15.8238 39.5082 15.3035 40.3212 14.955C41.1343 14.6066 42.0131 14.4383 42.8974 14.4617C44.2009 14.4636 45.4614 14.9286 46.4539 15.7738C47.2998 16.5127 47.9852 17.4173 48.4677 18.4316C49.2466 20.09 49.7793 21.8532 50.0489 23.6654C50.8461 28.0425 50.6953 32.5396 49.6067 36.8535Z" fill="black"/>
<path d="M37.4955 8.37249C37.6124 8.37249 37.7267 8.33782 37.8239 8.27287C37.9211 8.20791 37.9969 8.11558 38.0416 8.00756C38.0863 7.89955 38.0981 7.78068 38.0752 7.66601C38.0524 7.55134 37.9961 7.44601 37.9135 7.36333C37.8308 7.28066 37.7255 7.22435 37.6108 7.20154C37.4961 7.17873 37.3772 7.19044 37.2692 7.23518C37.1612 7.27993 37.0689 7.3557 37.0039 7.45291C36.939 7.55013 36.9043 7.66442 36.9043 7.78134C36.9043 7.93812 36.9666 8.08849 37.0774 8.19935C37.1883 8.31021 37.3387 8.37249 37.4955 8.37249Z" fill="black"/>
<path d="M34.1063 8.09406C34.157 7.87097 34.2703 7.66698 34.4329 7.50606C34.5955 7.34515 34.8007 7.23401 35.0243 7.1857V6.61377H33.5488V8.09406H34.1063Z" fill="black"/>
<path d="M48.5367 23.905C47.912 20.2908 46.4269 15.9797 42.8992 15.9797C42.0851 15.9449 41.2768 16.1312 40.5601 16.5188C39.8434 16.9063 39.245 17.4807 38.8284 18.1809H25.9527L17.1575 29.6531C17.2691 29.7511 17.375 29.8554 17.4747 29.9655C17.6539 30.1585 17.8148 30.3676 17.9553 30.5903L24.2754 27.7403L23.7563 30.0232L18.4167 31.7198C18.5233 32.1162 18.5751 32.5253 18.5705 32.9357C18.3946 32.8988 18.2212 32.8506 18.0514 32.7915C17.8736 32.7291 17.7054 32.657 17.5372 32.5801L17.2969 32.4599L16.8163 32.234C16.3923 32.0508 15.9465 31.9232 15.4898 31.8544L15.2591 31.8207C15.1389 31.8207 15.0092 31.8207 14.8746 31.7919H14.5093H14.3988H14.0335C13.9086 31.7919 13.7836 31.7919 13.6731 31.8207L13.4135 31.8544C12.9678 31.9132 12.5317 32.0295 12.1159 32.2004C11.9236 32.2821 11.7506 32.3686 11.5824 32.4455L11.3229 32.5705C11.1643 32.6426 11.0008 32.7146 10.8422 32.7771C10.6723 32.8356 10.4989 32.8837 10.3232 32.9213C10.3192 32.4945 10.3741 32.0691 10.4866 31.6573L3.64746 29.3984C3.64746 30.1962 3.68591 30.9892 3.74839 31.7726C3.74839 31.8544 3.74839 31.9312 3.74839 32.0081L3.79165 32.4888C3.79165 32.6089 3.79164 32.7339 3.82529 32.854H4.28187H4.49334H4.51737C4.68078 32.854 4.83458 32.8877 4.97395 32.9117C5.45046 33.0082 5.91139 33.1699 6.3437 33.3923C7.216 33.8789 8.19973 34.1307 9.19854 34.1228C10.1937 34.1452 11.1775 33.9084 12.0534 33.4356C12.2601 33.3394 12.4571 33.2433 12.6686 33.1616C13.1289 32.9823 13.6166 32.8831 14.1104 32.8684H14.7352C15.2119 32.8808 15.6831 32.9734 16.129 33.1424C16.3645 33.2289 16.576 33.3298 16.8018 33.4356C17.6839 33.9104 18.6745 34.1472 19.6759 34.1228C20.6806 34.1489 21.6747 33.912 22.5596 33.4356C22.7182 33.3635 22.872 33.2866 23.0402 33.2193L22.7999 34.2766L23.7948 34.0748L23.5545 35.1946C23.0653 35.3128 22.5924 35.4903 22.1463 35.7233C21.3935 36.1319 20.5466 36.3358 19.6903 36.3144C18.8356 36.3361 17.9902 36.1322 17.2392 35.7233C16.3837 35.2625 15.4231 35.0323 14.4516 35.0552C13.4802 35.0323 12.5196 35.2625 11.6641 35.7233C10.9131 36.1322 10.0677 36.3361 9.21296 36.3144C8.35819 36.3361 7.51279 36.1322 6.76184 35.7233C6.32383 35.4971 5.8609 35.3229 5.38248 35.2042H5.29116L5.15659 35.1754L4.99798 35.1514H4.89706C4.69039 35.1514 4.46931 35.1081 4.2242 35.0985C4.28187 35.358 4.33954 35.6176 4.40202 35.8771C4.55178 35.8849 4.70099 35.901 4.84899 35.9251H4.99798H5.09891L5.3248 35.9732C5.40651 35.9732 5.4786 36.0165 5.55069 36.0405C5.84359 36.1414 6.1294 36.2618 6.40618 36.401C7.26166 36.8617 8.22233 37.092 9.19374 37.069C10.1652 37.092 11.1258 36.8617 11.9813 36.401C12.7323 35.9921 13.5776 35.7882 14.4324 35.8098C15.2887 35.7889 16.1354 35.9927 16.8884 36.401C17.742 36.862 18.7012 37.0922 19.6711 37.069C20.6425 37.092 21.6032 36.8617 22.4587 36.401C22.7496 36.2616 23.0499 36.1428 23.3574 36.0453L22.8768 38.3522C22.5788 38.4628 22.3241 38.5829 22.079 38.6983C21.3448 39.1041 20.5143 39.3034 19.6759 39.275C18.8374 39.3044 18.0067 39.105 17.2729 38.6983C16.3934 38.2306 15.409 37.9957 14.4132 38.0158C13.4189 37.9955 12.436 38.2304 11.5584 38.6983C10.8242 39.1041 9.99371 39.3034 9.15529 39.275C8.31695 39.3027 7.48669 39.1034 6.75222 38.6983L6.31006 38.4484H6.28122L6.21394 38.4195C5.83161 38.2609 5.43134 38.1495 5.02201 38.0879C5.15659 38.4916 5.30077 38.8953 5.44976 39.2991C6.11212 41.0617 6.92411 42.7645 7.87686 44.3887C7.92011 44.4656 7.96337 44.5425 8.01143 44.6146C8.05949 44.6867 8.15081 44.8501 8.2229 44.9703L8.3815 45.2298L8.58817 45.5614L8.7708 45.8402L8.97746 46.1526C9.03994 46.2535 9.10723 46.3545 9.17451 46.4554L9.37637 46.7438L9.60707 47.0754L9.7897 47.3349L10.0685 47.7194L10.2223 47.9261L10.674 48.5412C14.3603 53.2849 19.4452 57.62 25.7845 61.4217L26.3324 61.7533L26.8755 61.4217C33.2148 57.62 38.2997 53.2849 41.986 48.5412L42.654 47.6473C42.6829 47.6137 42.7069 47.5752 42.7357 47.5368C42.9568 47.234 43.1731 46.9264 43.3798 46.6188L43.4326 46.5419C43.8748 45.8883 44.2977 45.2298 44.6918 44.557C45.7032 42.8493 46.5589 41.0542 47.2487 39.1933C47.3785 38.8377 47.5034 38.4868 47.6236 38.1312C47.2144 38.1934 46.8142 38.3048 46.4317 38.4628L46.3836 38.4484H46.3451L45.8405 38.6791C45.1039 39.0581 44.2875 39.2558 43.4591 39.2558C42.6307 39.2558 41.8142 39.0581 41.0776 38.6791C40.1921 38.2302 39.2132 37.9963 38.2204 37.9963C37.2276 37.9963 36.2487 38.2302 35.3631 38.6791C34.6257 39.0581 33.8085 39.2558 32.9793 39.2558C32.1501 39.2558 31.3329 39.0581 30.5955 38.6791C30.3551 38.5637 30.1148 38.4436 29.7976 38.333L28.8797 34.0748L29.8938 34.2815L29.2834 31.5852L32.6044 28.2882L34.796 29.8983L38.2132 26.433L41.6448 29.8983L43.8315 28.293L47.7582 32.2725L48.7434 33.2722C48.7915 32.9261 48.8299 32.5801 48.8636 32.2292V32.0802C48.8636 32.0081 48.8636 31.9409 48.8636 31.8688C49.0936 29.2111 48.9838 26.5349 48.5367 23.905ZM42.0869 24.4145L42.1494 24.2126H43.4038L43.7931 23.0207H43.9805L44.3698 24.2126H45.6242L45.6867 24.4145L44.6726 25.1498L45.0619 26.3417L44.8937 26.4667L43.8796 25.7265L42.8655 26.4667L42.6925 26.3417L43.0818 25.1498L42.0869 24.4145ZM39.4051 24.2703L39.2369 24.3952L38.2132 23.6551L37.1991 24.3952L37.0309 24.2703L37.4298 23.0687L36.4109 22.3334L36.4782 22.1315H37.7326L38.1171 20.9396H38.3285L38.7178 22.1315H39.9722L40.0347 22.3334L39.0206 23.0687L39.4051 24.2703ZM33.7339 26.3417L33.5656 26.4667L32.5515 25.7265L31.5375 26.4667L31.3692 26.3417L31.7537 25.1498L30.7396 24.4145L30.8021 24.2126H32.0565L32.4458 23.0207H32.6573L33.0418 24.2126H34.2962L34.3635 24.4145L33.3446 25.1498L33.7339 26.3417ZM29.1296 40.4237L27.8896 40.169L29.5958 48.3106L26.3324 46.9937L23.0642 48.3106L24.756 40.169L23.516 40.4237L25.1501 32.681L24.1889 32.8733L26.2315 22.1075H26.4333L28.4471 32.8829L27.4859 32.6906L29.1296 40.4237ZM26.9957 49.3871L27.2456 57.0769H25.4144L25.6836 49.3871L25.7268 48.1375L26.3324 47.8347L26.9524 48.1423L26.9957 49.3871ZM24.756 51.6028L24.7175 52.0834C24.0956 52.0932 23.4859 52.2584 22.9441 52.564C21.9406 53.1028 20.8147 53.3727 19.6759 53.3474C18.5883 53.3759 17.511 53.1314 16.5423 52.6361L16.4174 52.5736L16.0857 52.4198H16.0377C15.8958 52.3554 15.7497 52.3008 15.6003 52.2564L16.0809 51.8719L16.2059 51.7614C16.4462 51.8527 16.6865 51.9584 16.8836 52.0641L17.1719 52.1987C17.951 52.5715 18.8078 52.7528 19.6711 52.7274C20.6421 52.7516 21.6027 52.5231 22.4587 52.0641C23.1586 51.6615 23.9487 51.4416 24.756 51.4249V51.6028ZM35.4881 52.1603L35.7765 52.0257C35.9975 51.92 36.2138 51.8142 36.4541 51.7229L37.0645 52.2372C36.9 52.2861 36.7394 52.3471 36.5839 52.4198L36.5358 52.4438L36.2523 52.5736L36.1273 52.6361C35.1558 53.133 34.0749 53.3776 32.9841 53.3474C31.8478 53.3748 30.7237 53.1083 29.7207 52.5736C29.1742 52.2709 28.5622 52.1059 27.9377 52.093L27.8992 51.6124V51.4442C28.7055 51.4458 29.4985 51.649 30.2062 52.0353C31.0622 52.4942 32.0227 52.7228 32.9937 52.6986C33.8545 52.7194 34.708 52.5349 35.4833 52.1603H35.4881ZM22.5404 39.6643H22.574L22.0934 41.8223L23.3766 41.5627L21.5311 50.2138L24.9723 48.5076L24.8858 49.6707L24.8089 50.6752C23.8711 50.6657 22.9464 50.8956 22.1222 51.3432C21.3695 51.74 20.5264 51.9338 19.6759 51.9055C18.8835 51.9399 18.0952 51.7746 17.3834 51.4249L17.2248 51.3528C16.9721 51.224 16.7121 51.1101 16.4462 51.0116V40.3035H16.4126L15.6772 40.861V51.1462L14.9899 51.7229V40.4958L16.3549 39.4673L16.4174 39.4961L16.6913 39.6211L16.8259 39.6835C17.0325 39.7845 17.2488 39.8902 17.4939 39.9863C18.1838 40.2502 18.9183 40.3775 19.6567 40.3612C20.6589 40.3894 21.6512 40.1558 22.5356 39.6835L22.5404 39.6643ZM30.1341 39.6643C30.9049 40.0558 31.7477 40.2854 32.6106 40.3392C33.4735 40.3929 34.3382 40.2696 35.1517 39.9767C35.3968 39.8806 35.6323 39.7749 35.8245 39.6739H35.863C35.9831 39.6115 36.1033 39.5538 36.2282 39.5009L36.2907 39.4721L37.6557 40.5006V51.7469L36.9684 51.1702V40.8851L36.1994 40.3035V50.9924C35.9335 51.0909 35.6735 51.2048 35.4208 51.3336L35.2622 51.4057C34.5564 51.7597 33.7733 51.9315 32.9841 51.9055C32.128 51.9327 31.2797 51.7355 30.5234 51.3336C29.6957 50.8862 28.7679 50.6564 27.8271 50.6656L27.7454 49.6563L27.6589 48.4932L31.1193 50.2042L30.879 49.094L29.2738 41.5724L30.557 41.8319L30.0764 39.6691L30.1341 39.6643Z" fill="black"/>
<path d="M35.1444 42.9384L35.4905 42.7894V41.9387H35.4328L35.1444 42.0781C34.4694 42.3977 33.7282 42.5525 32.9817 42.5299C32.1798 42.5525 31.3851 42.374 30.6699 42.0108V42.8519C32.1026 43.4244 33.6964 43.4467 35.1444 42.9144V42.9384Z" fill="black"/>
<path d="M35.1442 45.2252C34.4692 45.5448 33.728 45.6996 32.9815 45.677C32.3775 45.6925 31.776 45.5947 31.208 45.3886V46.2008C31.7828 46.3743 32.3812 46.457 32.9815 46.4459C33.721 46.4662 34.457 46.3353 35.1442 46.0614L35.4903 45.9125V45.0618H35.4326L35.1442 45.2252Z" fill="black"/>
<path d="M35.1443 48.34C34.4727 48.6722 33.7307 48.8371 32.9816 48.8206C32.6352 48.8228 32.2894 48.7939 31.9482 48.7341V49.503C32.2905 49.552 32.6358 49.5761 32.9816 49.5751C33.7209 49.593 34.4564 49.4622 35.1443 49.1906C35.2645 49.1426 35.3798 49.0897 35.4904 49.0368V48.1862L35.4327 48.215L35.1443 48.34Z" fill="black"/>
<path d="M7.67188 19.9749L8.10443 20.2729L12.603 14.1258V13.3424H11.858L7.67188 19.9749Z" fill="black"/>
<path d="M33.1639 35.503V32.8596H32.0488V33.4988H32.4189V35.503H33.1639Z" fill="black"/>
<path d="M35.2842 34.7917C35.335 35.0242 35.4637 35.2323 35.649 35.3815C35.8344 35.5307 36.0651 35.6121 36.3031 35.6121C36.541 35.6121 36.7718 35.5307 36.9571 35.3815C37.1425 35.2323 37.2712 35.0242 37.322 34.7917C37.3225 34.6479 37.2797 34.5072 37.1991 34.3881C37.1185 34.2689 37.0039 34.1768 36.8702 34.1237C36.9762 34.0684 37.0646 33.9847 37.1258 33.882C37.1869 33.7793 37.2182 33.6616 37.2162 33.5421C37.178 33.3278 37.0656 33.1337 36.8986 32.9939C36.7316 32.8541 36.5208 32.7775 36.3031 32.7775C36.0853 32.7775 35.8745 32.8541 35.7076 32.9939C35.5406 33.1337 35.4282 33.3278 35.3899 33.5421C35.389 33.662 35.4212 33.7798 35.4832 33.8825C35.5451 33.9851 35.6343 34.0686 35.7408 34.1237C35.6062 34.176 35.4906 34.2678 35.4091 34.387C35.3276 34.5063 35.2841 34.6473 35.2842 34.7917ZM36.2887 33.7969C36.239 33.7978 36.1903 33.784 36.1485 33.7571C36.1068 33.7302 36.074 33.6915 36.0544 33.646C36.0347 33.6004 36.0291 33.55 36.0382 33.5012C36.0473 33.4524 36.0707 33.4074 36.1054 33.372C36.1402 33.3366 36.1847 33.3123 36.2333 33.3022C36.2819 33.2922 36.3324 33.2969 36.3783 33.3156C36.4243 33.3344 36.4636 33.3664 36.4913 33.4076C36.519 33.4488 36.5338 33.4973 36.5338 33.5469C36.5344 33.5795 36.5285 33.6119 36.5165 33.6422C36.5045 33.6725 36.4865 33.7001 36.4637 33.7234C36.4409 33.7467 36.4136 33.7651 36.3836 33.7778C36.3535 33.7904 36.3213 33.7969 36.2887 33.7969ZM36.2887 34.9792C36.2168 34.9779 36.1484 34.9485 36.098 34.8973C36.0477 34.846 36.0195 34.7771 36.0195 34.7052C36.0195 34.6338 36.0479 34.5654 36.0983 34.5149C36.1488 34.4644 36.2173 34.4361 36.2887 34.4361C36.36 34.4361 36.4285 34.4644 36.479 34.5149C36.5294 34.5654 36.5578 34.6338 36.5578 34.7052C36.5578 34.7771 36.5296 34.846 36.4793 34.8973C36.4289 34.9485 36.3605 34.9779 36.2887 34.9792Z" fill="black"/>
<path d="M40.1619 32.8595L39.5996 33.5948C39.3501 33.8883 39.2003 34.2535 39.1719 34.6377C39.176 34.7789 39.2103 34.9176 39.2725 35.0444C39.3347 35.1713 39.4233 35.2833 39.5323 35.3731C39.7512 35.5317 40.0167 35.6129 40.2869 35.6038C40.4289 35.6183 40.5724 35.6036 40.7085 35.5605C40.8445 35.5173 40.9703 35.4467 41.078 35.353C41.1857 35.2593 41.273 35.1445 41.3345 35.0156C41.396 34.8868 41.4304 34.7467 41.4356 34.6041C41.4454 34.4834 41.4305 34.362 41.3918 34.2473C41.353 34.1325 41.2913 34.027 41.2103 33.9369C41.1293 33.8469 41.0307 33.7744 40.9207 33.7239C40.8107 33.6733 40.6915 33.6457 40.5705 33.6429C40.4857 33.6435 40.4015 33.6565 40.3205 33.6813L41.0174 32.8499L40.1619 32.8595ZM40.2917 34.234C40.3937 34.234 40.4915 34.2745 40.5636 34.3466C40.6357 34.4187 40.6762 34.5165 40.6762 34.6185C40.6762 34.7205 40.6357 34.8183 40.5636 34.8904C40.4915 34.9625 40.3937 35.003 40.2917 35.003C40.2412 35.003 40.1912 34.9931 40.1446 34.9737C40.0979 34.9544 40.0555 34.9261 40.0198 34.8904C39.9841 34.8547 39.9558 34.8123 39.9365 34.7656C39.9172 34.719 39.9072 34.669 39.9072 34.6185C39.9072 34.568 39.9172 34.518 39.9365 34.4714C39.9558 34.4247 39.9841 34.3823 40.0198 34.3466C40.0555 34.3109 40.0979 34.2826 40.1446 34.2633C40.1912 34.244 40.2412 34.234 40.2917 34.234Z" fill="black"/>
<path d="M43.1553 34.7917C43.2061 35.0242 43.3348 35.2323 43.5201 35.3815C43.7055 35.5307 43.9362 35.6121 44.1742 35.6121C44.4121 35.6121 44.6429 35.5307 44.8282 35.3815C45.0136 35.2323 45.1423 35.0242 45.1931 34.7917C45.1936 34.6479 45.1508 34.5072 45.0702 34.3881C44.9896 34.2689 44.875 34.1768 44.7413 34.1237C44.8473 34.0684 44.9357 33.9847 44.9969 33.882C45.058 33.7793 45.0893 33.6616 45.0873 33.5421C45.0491 33.3278 44.9367 33.1337 44.7697 32.9939C44.6028 32.8541 44.3919 32.7775 44.1742 32.7775C43.9564 32.7775 43.7456 32.8541 43.5787 32.9939C43.4117 33.1337 43.2993 33.3278 43.261 33.5421C43.2591 33.6616 43.2904 33.7793 43.3515 33.882C43.4126 33.9847 43.5011 34.0684 43.6071 34.1237C43.4734 34.1768 43.3588 34.2689 43.2782 34.3881C43.1976 34.5072 43.1548 34.6479 43.1553 34.7917ZM44.1742 33.7969C44.1246 33.7978 44.0758 33.784 44.034 33.7571C43.9923 33.7302 43.9595 33.6915 43.9399 33.646C43.9202 33.6004 43.9146 33.55 43.9237 33.5012C43.9328 33.4524 43.9562 33.4074 43.9909 33.372C44.0257 33.3366 44.0702 33.3123 44.1188 33.3022C44.1674 33.2922 44.2179 33.2969 44.2639 33.3156C44.3098 33.3344 44.3491 33.3664 44.3768 33.4076C44.4045 33.4488 44.4193 33.4973 44.4193 33.5469C44.4199 33.5795 44.4141 33.6119 44.402 33.6422C44.39 33.6725 44.372 33.7001 44.3492 33.7234C44.3264 33.7467 44.2992 33.7651 44.2691 33.7778C44.239 33.7904 44.2068 33.7969 44.1742 33.7969ZM44.1742 34.9792C44.1024 34.9779 44.0339 34.9485 43.9836 34.8973C43.9332 34.846 43.905 34.7771 43.905 34.7052C43.905 34.6338 43.9334 34.5654 43.9839 34.5149C44.0343 34.4644 44.1028 34.4361 44.1742 34.4361C44.2456 34.4361 44.314 34.4644 44.3645 34.5149C44.415 34.5654 44.4433 34.6338 44.4433 34.7052C44.4433 34.7771 44.4151 34.846 44.3648 34.8973C44.3144 34.9485 44.246 34.9779 44.1742 34.9792Z" fill="black"/>
</svg>
