<?xml version="1.0" encoding="UTF-8"?>
<svg xmlns="http://www.w3.org/2000/svg" viewBox="0 0 1937 620" width="1937" height="620">
<path d="M218 0.17C221.33 0.17 224.67 0.17 228 0.17C231.42 1.96 239.2 1.36 243.47 2.03C249.33 2.95 255.72 5.06 261.31 7.19C272.76 11.55 282.9 18.94 292.97 25.53C296.78 28.03 300.34 31.16 304.69 32.81C312.36 35.74 328.75 34 337.5 34C340 34 342.87 33.61 345.31 34.19C349.66 35.23 356.29 41.74 360.03 44.47C371.21 52.63 383.25 59.78 394 68.5C386.33 85.17 378.67 101.83 371 118.5C375.98 118.5 381.48 116.82 386.53 116.03C395.26 114.66 408.16 117.08 416.31 120.19C452.68 134.06 468.09 174.75 474.81 209.69C476.08 216.25 476.94 222.96 477.97 229.53C478.22 231.15 477.78 232.85 478.03 234.47C479.53 244.05 480 253.64 480 263.5C480 274.16 480.66 285.13 479.03 295.53C478.58 298.41 479.37 301.43 478.81 304.31C476.9 314.24 475.81 324.34 473.81 334.31C472.97 338.51 471.21 342.53 470.19 346.69C466.84 360.27 461.8 373.22 456.81 386.31C449.64 405.13 437.49 425.3 426.53 442.03C396.18 488.35 355.56 527.04 311.03 559.53C301.77 566.29 292.65 573.26 282.97 579.47C274.99 584.58 266.68 589.12 258.66 594.16C252.73 597.88 246.72 601.89 240.5 605C233.69 602.33 227.13 597.48 220.97 593.53C207.53 584.92 193.86 576.94 180.97 567.53C171.7 560.77 162.29 554.22 153.03 547.47C144.47 541.22 136.79 533.59 128.5 527C125.2 524.38 122.8 520.62 119.5 518C110.98 511.23 102.77 503.02 96 494.5C93.96 491.93 91.04 490.07 89 487.5C82.69 479.56 75.51 472.17 69.53 463.97C49.39 436.36 31.48 406.56 19.19 374.31C11.58 354.36 6.3 333.34 3.03 312.47C2.21 307.21 2.79 301.79 1.97 296.53C1.53 293.74 1 291.45 1 288.5C1 284.4 2 278.51 0.17 275C0.17 272.33 0.17 269.67 0.17 267C1.67 264.13 1 259.88 1 256.5C1 252.26 1.33 248.54 1.97 244.47C2.38 241.87 1.62 239.13 2.03 236.53C3.74 225.61 5.01 214.56 7.19 203.69C9.61 191.57 13.98 179.54 18.5 168C25.64 149.74 38.52 137.98 52 124.5C60.63 115.87 69.01 106.54 78.5 99C86.8 92.41 94 83.5 101.5 76C113.65 63.85 125.8 52.7 138 40.5C147.39 31.11 156.46 21.18 167.66 14.16C177.36 8.07 189.43 3.77 200.53 2.03C204.91 1.35 214.83 1.83 218 0.17ZM385.29 71.5C381.99 67.81 377.27 65.22 373.2 62.33C367.16 58.03 361.15 53.71 355.1 49.43C351.76 47.06 347.28 42.31 343.24 41.4C340.86 40.86 337.94 41.3 335.5 41.3C326.94 41.3 313.75 42.71 305.77 40.67C293.98 37.66 284.32 27.51 273.97 21.54C257.82 12.21 239.36 6.49 220.51 7.31C203.24 8.06 185.94 11.27 171.08 20.57C154 31.25 139.96 48.99 125.34 62.85C107.05 80.18 89.01 97.87 71.08 115.58C60.5 126.02 47.72 136.49 38.57 148.1C30.28 158.6 24.34 171 20.17 183.65C13.79 203 10.48 223.26 8.79 243.5C6.43 271.87 7.51 300.61 13.12 328.46C32.35 423.88 101.47 502.72 178.88 557.6C198.56 571.56 218.99 585.92 240.5 596.95C348.71 535.04 452.54 440.18 470.71 310.44C472.52 297.51 473.13 284.56 473.13 271.5C473.13 260.78 472.77 250.17 471.81 239.5C467.7 193.97 451.3 125.43 394.5 123.11C387.27 122.82 379.39 123.9 372.52 126.05C361.11 129.62 352.62 135.59 343.5 143.06C336.54 135.54 329.58 128.02 322.61 120.5C323.58 118.02 324.54 115.54 325.5 113.07C335.11 113.07 344.71 113.07 354.32 113.07C353.48 115.21 352.64 117.36 351.8 119.5C354.71 121.16 359.02 120.68 362.5 120.24C370.1 103.99 377.69 87.75 385.29 71.5ZM372.4 74.5C368.15 83.83 363.89 93.17 359.63 102.5C354.76 103.41 349.47 102.92 344.5 102.92C336.84 102.92 328.49 104.05 321.61 99.95C317.87 97.73 314.98 94.16 313.46 90.08C312.9 88.57 312.77 84.95 311.67 83.84C310.73 82.88 308.57 83.44 307.36 83.5C305.72 93.9 311.34 99.86 316.97 107.5C314.7 112.5 312.43 117.5 310.16 122.5C316.4 129.17 322.65 135.83 328.89 142.5C325.35 143.7 318.4 144.34 314.67 142.93C311 141.54 300.56 130.9 296.73 127.78C291.72 123.7 290.46 120.62 283.34 121.5C289.23 128.5 295.12 135.5 301.01 142.5C293.71 144.87 281.53 143.32 273.5 143.32C270.29 143.32 265.86 144.13 263.02 142.5C259.36 140.4 251.04 130.54 247.48 127.02C245.89 125.44 243.94 122.49 241.81 121.66C237.89 120.14 233.01 122.02 229.05 120.5C240.7 94.63 227.16 62.75 200.83 52.6C194.89 50.31 187.64 48.35 181.33 49.5C181.29 50.76 180.76 52.76 181.79 53.74C183.13 55.01 191.09 55.49 193.41 56.18C199.24 57.89 204.82 61.1 209.42 65.05C222.96 76.68 228.01 96.59 221.71 113.24C219.1 120.12 214.21 125.5 210.17 131.5C217.42 132.69 231.68 130.28 237.38 132.1C240.28 133.02 245.92 140.11 248.27 142.5C240.36 144.83 219.85 143.32 210.5 143.32C185.75 143.32 160.81 144.19 136.08 143.18C136.08 129.36 136.08 115.54 136.08 101.73C124.32 101.73 112.56 101.73 100.81 101.73C103.71 97.01 108.77 93.16 112.84 89.35C119.89 82.75 126.58 75.75 133.53 69.04C140.83 62 147.96 54.78 155.35 47.86C161.4 42.2 166.83 35.88 173.65 31.1C192.05 18.2 217.76 15.27 239.47 19.08C250.55 21.03 261.34 25.6 270.83 31.65C280.54 37.84 289.66 45.98 300.66 49.81C310.35 53.19 321.41 51.84 331.5 51.84C334.33 51.84 337.69 51.34 340.46 51.99C343.72 52.76 347.34 56.52 350.07 58.46C357.52 63.76 365.27 68.79 372.4 74.5ZM281.87 51.5C265.21 42.35 250.99 31.06 231.52 28.82C226.38 28.23 218.12 26.24 214 29.5C214.09 30.63 213.68 32.13 214.72 32.95C215.5 33.56 221.96 33.63 223.5 33.79C229.93 34.44 236.27 35.81 242.28 38.23C257.05 44.18 267.54 57.02 281.87 63.34C281.87 59.39 281.87 55.45 281.87 51.5ZM319.93 61.31C315.6 61.31 311.27 61.31 306.94 61.31C306.94 65.88 306.94 70.46 306.94 75.04C314.04 74.97 311.27 72.84 315.51 69C316.65 67.97 319.17 67.45 319.94 66.26C320.91 64.77 320.15 62.86 319.93 61.31ZM338.09 75.1C341.62 77.83 348.2 78.82 348.62 72.42C349.08 65.42 341.91 66.1 338.09 69.03C338.09 71.05 338.09 73.08 338.09 75.1ZM125.5 111.95C126.74 118.49 125.98 125.79 125.98 132.5C125.98 137.6 126.73 143.36 125.8 148.38C124.3 156.57 120.61 164.73 118.31 172.75C116.12 180.39 114.42 188.68 109.98 195.42C98.79 212.42 74.52 217.87 57.6 205.96C41.18 194.4 36.11 171.78 47.17 154.69C52.95 145.75 62.22 138.67 69.83 131.33C74.58 126.75 79.26 122.1 83.98 117.49C85.54 115.96 87.59 112.9 89.68 112.18C92.75 111.12 97.27 111.93 100.5 111.93C108.83 111.93 117.17 111.9 125.5 111.95ZM114.23 123.5C112.31 123.15 109.63 122.38 107.7 123.23C105.62 124.14 100.45 134.05 98.96 136.43C92.81 146.27 86.6 156.07 80.39 165.88C76.55 171.95 71.98 177.98 69.01 184.5C70.18 185.33 71.34 186.16 72.5 186.99C77.18 182.46 80.76 176.37 84.56 171.08C90.83 162.37 97.26 153.77 103.58 145.11C105.91 141.92 113.16 133.71 114.01 130.45C114.58 128.28 114.23 125.72 114.23 123.5ZM240.5 584.97C219.54 573.87 199.52 560.01 180.41 546.04C90.56 480.39 17.86 386.23 17.86 270.5C17.86 251.97 19.52 233.58 22.93 215.48C24.94 204.84 26.82 193.44 31.34 183.5C32.32 185.32 32.62 188.07 33.34 190.23C34.8 194.54 36.93 198.98 39.81 202.5C36.15 218.22 33.5 234.32 32.64 250.5C54.93 260.72 77.21 270.93 99.5 281.15C101.64 278.6 103.79 276.05 105.93 273.5C92.8 256.17 79.68 238.83 66.55 221.5C70.15 221.84 73.83 222.65 77.5 222.76C81.17 222.88 84.64 222.02 88.24 222.5C97.32 237.43 106.41 252.36 115.5 267.3C118.81 266.03 122.13 264.77 125.44 263.5C123.94 248.29 123.55 232.78 122.83 217.5C122.51 210.79 120.73 203.25 121.48 196.59C121.72 194.48 123.09 192.35 123.79 190.36C125.3 186.08 126.47 181.64 127.76 177.3C129.79 170.45 131.65 159.48 135.5 153.78C183.17 153.71 230.83 153.78 278.5 153.78C293.83 153.78 309.17 153.78 324.5 153.78C331.58 153.78 339.46 154.76 346.47 153.76C349.11 153.38 350.63 150.74 352.48 148.97C355.57 146.02 359.04 143.41 362.7 141.21C379.7 131.03 402.46 130.84 419.35 141.11C434.22 150.15 443.37 166.41 449.21 182.3C459.72 210.9 463 242.14 463 272.5C463 291.97 460.87 311.44 456.79 330.4C452.92 348.42 446.33 365.76 439.23 382.73C402.06 471.48 321.6 537.68 240.5 584.97ZM446.5 306.33C449.9 287.75 449.55 268.29 448.08 249.5C446 222.94 442.26 194.42 428.5 170.99C422.99 161.61 414.95 152.65 404.27 149.25C385.99 143.44 364.78 151.47 355.26 168C315.67 168 276.09 168 236.5 168C209.7 203.16 182.91 238.33 156.11 273.5C158.57 276.34 161.04 279.17 163.5 282.01C182.5 273.4 201.5 264.79 220.5 256.17C219.13 262.95 217.76 269.72 216.39 276.5C200.43 281.83 184.47 287.17 168.51 292.5C168.51 296.03 168.51 299.56 168.51 303.09C162.27 302.09 157.08 298.49 151.24 296.29C144.9 293.91 138.26 292.87 131.5 292.85C124.39 292.82 117.44 293.81 110.78 296.32C104.96 298.5 99.82 302.08 93.6 303.1C93.6 299.57 93.6 296.03 93.6 292.5C73.23 285.34 52.87 278.18 32.5 271.02C30.54 280.65 32.08 292.77 33.62 302.5C38.84 303.4 44.24 303.43 49.33 305.18C62 309.52 68.88 315.12 83.5 314.83C102.26 314.46 114.04 302.7 132.5 303C143.1 303.17 151.05 308.26 160.69 311.75C166.03 313.68 171.84 314.44 177.5 314.76C184.28 315.14 191.81 313.89 198.19 311.6C202.01 310.22 205.53 307.69 209.5 307.41C208.92 309.97 208.35 312.52 207.77 315.07C210.78 315.07 213.8 315.07 216.81 315.07C216.04 318.09 215.27 321.1 214.5 324.11C199.35 330.15 186.55 336.93 169.55 333.84C157.93 331.73 148.56 324.07 136.5 323.09C129.29 322.51 121.58 323.06 114.68 325.26C104.53 328.49 96.46 334.08 85.44 334.54C79.85 334.78 74.12 334.29 68.75 332.71C57.65 329.45 50.02 323.37 37.72 323.05C37.72 325.36 37.72 327.67 37.72 329.98C41.57 330.96 45.45 331.12 49.26 332.29C53.58 333.63 57.54 336.01 61.67 337.81C69.26 341.11 78.24 342.54 86.5 341.87C103.11 340.51 116.49 329.14 133.5 330.17C147.29 331.01 155.16 338.59 167.55 340.87C186.6 344.37 195.82 339.22 212.5 332.39C210.95 339.42 209.41 346.46 207.86 353.5C194.55 359.23 184.58 363.97 169.5 360.97C163.33 359.75 158.04 356.58 152.3 354.21C146.95 352 141.24 350.76 135.48 350.24C127.19 349.49 118.2 350.82 110.49 353.94C102.07 357.33 94.83 361.42 85.5 361.83C78.75 362.13 72.04 361.22 65.75 358.73C58.96 356.04 52.29 351.32 44.8 351.5C50.67 375.8 67.38 405.38 81.35 426.18C113.57 474.14 156.58 512.91 203.93 545.55C215.76 553.7 227.9 561.75 240.5 568.71C302.01 530.73 359.18 487.14 399.57 426.09C414.25 403.91 429.44 377.38 436.1 351.5C428.69 351.19 421.92 356.02 415.21 358.67C408.88 361.17 402.29 362.11 395.5 361.83C385.35 361.41 377.61 356.56 368.37 353.17C361.27 350.57 353.02 349.64 345.5 350.24C339.77 350.69 333.97 351.93 328.67 354.17C323.28 356.44 318.16 359.52 312.39 360.78C297.02 364.11 286.6 359.47 273 353.5C270.02 340.7 267.04 327.9 264.06 315.1C267.04 315.1 270.02 315.1 273 315.1C271.3 307.23 269.6 299.37 267.9 291.5C278.1 281.37 288.3 271.24 298.5 261.11C305.17 265.95 311.83 270.78 318.5 275.61C328.83 265.11 339.17 254.61 349.5 244.11C360.17 254.6 370.83 265.09 381.5 275.58C388.17 270.75 394.83 265.93 401.5 261.1C416.5 276.18 431.5 291.26 446.5 306.33ZM142.5 168.01C141.7 172.11 142.06 176.32 141.73 180.5C140.56 195.81 139.79 211.16 138.87 226.5C138.26 236.78 135.58 255.15 137.5 264.48C140.5 265.41 143.5 266.34 146.5 267.27C166.36 234.18 186.22 201.1 206.07 168.01C184.88 168.01 163.69 168.01 142.5 168.01ZM349.5 193.17C352.34 195.74 352.79 200.5 354.5 204.1C358.33 204.19 363.23 203.26 366.11 205.5C363.21 207.83 360.31 210.17 357.4 212.5C357.87 216.67 360.54 220.63 359.5 224.7C356.17 222.52 352.83 220.34 349.5 218.16C346.36 220.27 343.23 222.39 340.09 224.5C338.72 221.09 341.7 216.31 342.09 212.5C339.22 210.11 336.36 207.73 333.5 205.34C336.92 203.41 341.49 204.3 345.5 203.79C346.83 200.25 348.17 196.71 349.5 193.17ZM240.5 204C242.46 206.98 242.56 210.93 243.22 214.46C244.52 221.47 245.83 228.48 247.08 235.47C251.01 257.41 255.86 281.09 259.5 301.98C256.79 301.98 254.07 301.98 251.36 301.98C256.07 325.36 260.79 348.75 265.5 372.14C262.02 371.59 258.55 371.05 255.07 370.5C260.04 395.17 265.01 419.83 269.98 444.5C262.95 443.1 255.8 439.12 249.08 436.45C246.63 435.48 243.14 433.18 240.49 433.17C237.62 433.16 233.88 435.65 231.22 436.68C224.6 439.23 218.04 441.96 211.5 444.65C210.21 438.71 213.63 430.44 214.9 424.46C218.69 406.69 222.34 388.93 225.91 371.16C222.28 371.16 218.66 371.16 215.04 371.16C219.86 347.89 224.68 324.62 229.5 301.36C226.83 301.86 224.17 302.37 221.5 302.88C221.26 295.59 224.39 284.95 225.85 277.46C228.98 261.44 231.85 245.5 234.83 229.46C235.82 224.11 237.73 207.13 240.5 204ZM297.5 212.32C299.17 215.97 300.83 219.62 302.5 223.27C306.24 223.31 310.94 222.42 313.98 224.5C311 227.17 308.02 229.83 305.04 232.5C305.91 236.17 306.78 239.83 307.65 243.5C304.27 241.39 300.88 239.27 297.5 237.16C294.96 239.2 290.64 243.54 287.5 243.28C288.28 239.36 289.06 235.43 289.84 231.5C286.95 229.17 284.06 226.83 281.18 224.5C284.16 222.38 288.86 223.3 292.5 223.3C294.17 219.64 295.83 215.98 297.5 212.32ZM401.5 212.32C404.51 214.48 405.19 219.6 406.5 223.18C410.39 223.34 415.15 222.46 418.25 224.5C415.26 227.17 412.27 229.83 409.27 232.5C410.45 235.65 413.02 240.48 411.89 243.5C408.76 241.51 405.63 239.51 402.5 237.52C399.01 239.51 395.53 241.51 392.04 243.5C390.99 240.37 393.46 235.62 394.72 232.5C391.73 229.83 388.74 227.17 385.75 224.5C388.84 222.46 393.62 223.36 397.5 223.12C398.83 219.52 400.17 215.92 401.5 212.32ZM337.99 314.5C342.59 309.03 340.08 302.13 332.5 301.95C324.32 301.76 321.67 308.26 326.31 314.5C319.21 320.63 323.98 328.27 332.5 328.09C341.05 327.91 344.74 320.36 337.99 314.5ZM410.19 314.5C415.49 308.71 412.39 301.91 404.5 301.95C396.58 301.98 393.76 308.68 398.87 314.5C391.38 319.68 396.57 328.06 404.5 328.09C412.44 328.12 417.81 319.66 410.19 314.5ZM293.5 302.99C293.23 304.41 292.36 306.83 293.27 308.25C294.11 309.56 295.56 308.75 296.25 310.53C297.29 313.23 296.2 323.29 296.5 327C298.74 327 300.99 327 303.23 327C303.23 318.99 303.23 310.99 303.23 302.99C299.99 302.99 296.74 302.99 293.5 302.99ZM367.5 303.02C363.08 308.4 355.74 316.23 359.85 323.66C360.89 325.54 362.69 327.05 364.78 327.64C371.7 329.61 379.35 326.3 379.14 318.5C379.08 316.45 378.78 314.67 377.48 313.04C375.58 310.68 372.74 310.28 370.03 309.5C371.72 307.34 373.4 305.18 375.09 303.02C372.56 303.02 370.03 303.02 367.5 303.02ZM333.5 307.45C333.5 308.6 333.5 309.76 333.5 310.91C332.47 310.77 331.44 310.64 330.42 310.5C330.56 307.56 330.57 307.56 333.5 307.45ZM403.5 307.16C405.72 307.61 405.81 307.44 406.84 309.5C406.06 310.17 405.28 310.84 404.5 311.5C402.36 309.91 402.35 309.49 403.5 307.16ZM371.5 317.01C371.66 318.18 371.82 319.34 371.99 320.5C368.86 323.29 366.4 322.65 365.36 318.5C367.14 315.74 368.67 315.53 371.5 317.01ZM333.5 321.9C332.46 321.77 331.42 321.63 330.37 321.5C330.31 320.1 329.73 317.06 332.33 317.41C335.16 317.79 334.35 320.35 333.5 321.9ZM406.98 320.5C405.82 320.99 404.66 321.48 403.5 321.98C403.04 321.15 402.58 320.33 402.13 319.5C404.41 316.64 405.86 317.23 406.98 320.5ZM148.5 363.99C162.97 369.41 170.93 373.86 187.45 371.73C193.82 370.91 199.43 367.61 205.5 366.44C204.26 372.46 203.01 378.48 201.77 384.5C205.5 385.21 209.06 383.88 212.85 383.5C207.4 409.56 201.95 435.63 196.5 461.69C206.73 456.88 216.96 452.07 227.18 447.25C227.18 453.67 227.18 460.08 227.18 466.5C221.23 467.13 215.52 467.47 209.78 469.33C202.13 471.81 195.52 476.58 187.45 477.87C173.9 480.04 161.52 475.73 149.77 469.5C149.77 436.99 149.77 404.47 149.77 371.96C147.51 372.9 143.63 374.56 142.6 377.12C141.31 380.32 142.39 393.31 142.39 397.5C142.39 416.5 142.39 435.5 142.39 454.5C142.39 458.72 143.52 467.7 141.96 471.33C141.06 473.45 137.95 475.02 136.09 476C136.09 441.84 136.09 407.67 136.09 373.5C140.23 370.33 144.36 367.16 148.5 363.99ZM331.5 364.03C335.94 367.19 340.39 370.34 344.83 373.5C344.83 407.7 344.83 441.89 344.83 476.09C342.92 475.07 339.44 473.21 338.52 471.03C337.11 467.65 338.23 453.93 338.23 449.5C338.23 425.24 339.26 400.72 338.08 376.5C335.78 374.98 333.47 373.47 331.17 371.95C331.17 404.47 331.17 436.98 331.17 469.5C319.26 475.56 307.2 480.03 293.54 477.91C285.47 476.65 278.8 471.87 271.15 469.4C265.3 467.51 259.61 467.23 253.55 466.5C253.55 460.07 253.55 453.64 253.55 447.21C263.53 452.17 273.52 457.13 283.5 462.09C284.57 456.28 280.61 443.8 279.19 437.45C276.9 427.18 274.86 416.93 272.7 406.67C271.1 399.03 268.67 391.28 267.96 383.5C271.72 383.95 275.45 385.25 279.12 384.5C277.91 378.36 276.71 372.22 275.5 366.08C296.62 374 311.04 375.05 331.5 364.03ZM859.69 366.19C862.54 365.62 865.01 366.17 867.69 366.81C887.15 371.46 885.27 399.87 865.47 402.97C842.82 406.52 835.95 370.93 859.69 366.19ZM1343.69 366.19C1368.15 361.3 1375.2 398.04 1351.31 402.81C1333.65 406.35 1322.08 384.42 1335 371.5C1337.53 368.97 1340.06 366.91 1343.69 366.19ZM594 381.02C594.67 384.18 595.33 387.34 596 390.5C588.67 393.17 581.33 395.83 574 398.5C574 425.83 574 453.17 574 480.5C574 501.96 573.74 529.68 597.69 538.81C602.23 540.54 607.72 541.57 612.5 542C618.37 542.53 624.14 541.51 629.69 540.19C633.94 539.17 638.54 538.23 642.34 535.84C664.39 522.02 663 497.48 663 474.5C663 459.17 663 443.83 663 428.5C663 418.17 663 407.83 663 397.5C655.99 395.33 648.99 393.17 641.98 391C641.98 387.67 641.98 384.34 641.98 381.01C661.49 381.01 680.99 381.01 700.5 381.01C701.17 384.34 701.83 387.67 702.5 391C695.5 393 688.5 395 681.5 397C679.77 405.63 681 415.64 681 424.5C681 433.83 681 443.17 681 452.5C681 488.23 686.98 526.29 653.03 548.53C649.21 551.03 644.74 553.54 640.31 554.81C635.88 556.09 631 557.26 626.47 557.97C623.55 558.43 620.45 557.57 617.53 558.03C616.44 558.2 615.57 558.9 614.47 558.97C612.94 559.07 611.91 558.26 610.47 558.03C606.9 557.47 603.1 558.53 599.53 557.97C596.79 557.54 594.01 556.73 591.31 556.19C585.52 555.03 580.03 553.53 574.66 550.84C558.09 542.56 549.78 526.05 547.03 508.47C546.49 504.99 547 501.02 547 497.5C547 489.83 547 482.17 547 474.5C547 449.17 547 423.83 547 398.5C539.97 396 532.94 393.5 525.9 391C525.9 387.67 525.9 384.35 525.9 381.02C548.6 381.02 571.3 381.02 594 381.02ZM156.21 386.71C156.21 389.31 156.21 391.92 156.21 394.52C168.34 399.21 189.27 402.85 200.5 394.51C200.51 391.87 200.69 389.91 199.5 387.74C189.03 392.27 177.88 393.27 166.75 390.69C163.12 389.85 159.73 387.9 156.21 386.71ZM324.73 386.71C314.5 390 306.76 393.3 295.51 391.93C290.28 391.29 285.53 389.09 280.5 387.79C280.33 389.75 279.54 393.11 280.65 394.89C281.89 396.87 291.14 398.69 293.5 398.91C304.56 399.93 314.46 398.43 324.73 394.5C324.73 391.9 324.73 389.31 324.73 386.71ZM1470 619.83C1468.67 619.83 1467.33 619.83 1466 619.83C1462.23 617.86 1457.05 619.05 1452.03 615.47C1442.09 608.36 1440.75 591.87 1451.03 584.53C1458.44 579.24 1471.43 581.82 1474.81 590.69C1476.88 596.12 1475.96 601.23 1474 606.5C1478.58 607.12 1483.31 603.19 1486.5 600C1494.29 592.21 1499.68 581.74 1504.16 571.66C1505.83 567.89 1508.64 562.77 1507.97 558.53C1507.47 555.4 1505.32 552.28 1504.19 549.31C1501.63 542.61 1498.75 536.03 1496.19 529.31C1488.78 509.89 1480.6 490.75 1473.19 471.31C1470.27 463.67 1467.76 455.72 1464.16 448.34C1463.11 446.2 1462.81 443.19 1460.97 441.53C1458.15 438.99 1452.94 440 1449.5 440C1439.17 440 1428.83 440 1418.5 440C1416.96 447.71 1418 456.58 1418 464.5C1418 480.17 1418 495.83 1418 511.5C1418 520.08 1418.17 531.86 1426.03 537.47C1435.69 544.36 1451.49 538.72 1461.5 535C1462.67 537.17 1463.83 539.33 1465 541.5C1461.32 545.18 1457.71 549.04 1453.34 551.84C1448.18 555.15 1441.37 557.05 1435.47 557.97C1433.2 558.32 1430.8 557.68 1428.53 558.03C1427.44 558.2 1426.57 558.9 1425.47 558.97C1423.94 559.07 1422.91 558.26 1421.47 558.03C1419.56 557.73 1417.6 558.18 1415.69 557.81C1406.71 556.08 1398.49 549.99 1395.19 541.31C1390.69 529.51 1392 516.05 1392 503.5C1392 482.5 1392 461.5 1392 440.5C1386.5 440.33 1381 440.17 1375.5 440C1373.37 429.37 1379.42 428.52 1385 421.5C1388.51 417.08 1392.49 412.92 1396 408.5C1398.33 405.57 1401.67 403.43 1404 400.5C1408.3 395.08 1409.89 391 1417.5 391C1417.67 402.5 1417.83 414 1418 425.5C1447.33 425.83 1476.67 426.17 1506 426.5C1506.5 429.33 1507 432.17 1507.5 435C1501.33 436.83 1495.17 438.67 1489 440.5C1495.29 453.08 1499.17 467.15 1504.19 480.31C1507.37 488.66 1511.67 497 1513.81 505.69C1515.37 512.01 1517.59 518.32 1518.81 524.69C1519.39 527.7 1519.04 530.54 1521 532.5C1530.33 502.17 1539.67 471.83 1549 441.5C1542.83 439.33 1536.67 437.17 1530.5 435C1531 432.17 1531.5 429.33 1532 426.5C1547.83 426.33 1563.67 426.17 1579.5 426C1580 428.83 1580.5 431.67 1581 434.5C1577.54 437.19 1570.24 438.03 1567.53 441.03C1565.12 443.71 1564.15 450.82 1562.81 454.31C1559.39 463.29 1556.23 472.35 1552.81 481.31C1544.4 503.37 1536.6 525.63 1528.19 547.69C1520.87 566.88 1513.96 587.19 1501 603.5C1495.29 610.68 1486.37 617 1477.31 618.81C1474.72 619.33 1472.26 618.65 1470 619.83ZM156.14 415.28C156.14 417.68 156.14 420.09 156.14 422.5C165.14 430.27 185.06 428.61 195.73 425.76C195.73 423.34 195.73 420.92 195.73 418.5C191.03 418.85 186.36 420.61 181.5 420.86C172.26 421.34 164.54 418.56 156.14 415.28ZM324.82 415.25C310.76 420.69 300.1 422.77 285.23 418.19C285.23 420.75 285.23 423.31 285.23 425.87C296.19 428.53 315.48 430.29 324.82 422.5C324.82 420.08 324.82 417.67 324.82 415.25ZM733.59 423C733.59 431.33 733.59 439.67 733.59 448C735.73 446.17 737.19 443.78 739 441.5C742.96 436.51 748.36 432.48 753.66 429.16C759 425.81 765.5 424.95 771.47 423.97C789.7 420.98 806.21 430.02 810.81 448.69C812.71 456.36 812 464.56 812 472.5C812 487.5 812 502.5 812 517.5C812 525.11 811.02 533.59 812.5 541C819.33 543.17 826.17 545.33 833 547.5C831.5 550.33 830 553.16 828.5 555.99C810 555.99 791.5 555.99 773 555.99C771.8 552.88 771.85 550.25 772.5 547C777 545.17 781.5 543.33 786 541.5C786 523.5 786 505.5 786 487.5C786 479.67 787.31 469.2 785.81 461.69C782.21 443.67 762.35 444.28 749 449.5C743.4 451.69 738.83 454.49 734.02 458C734.02 485.67 734.02 513.33 734.02 541C741.01 543.17 748.01 545.33 755 547.5C753.5 550.33 752 553.16 750.5 555.99C732 555.99 713.5 555.99 695 555.99C693.8 552.88 693.85 550.25 694.5 547C698.83 545.67 703.17 544.33 707.5 543C708.74 536.82 708 529.86 708 523.5C708 511.5 708 499.5 708 487.5C708 480.5 708 473.5 708 466.5C708 463.39 708.54 459.72 707.81 456.69C706.25 450.16 694.52 445.37 694 437.5C697.69 434.51 702.91 433.49 707.31 431.81C714.75 428.98 725.88 423.08 733.59 423ZM875.5 423C877.65 425.76 877 429.07 877 432.5C877 439.83 877 447.17 877 454.5C877 483.17 877 511.83 877 540.5C883.67 542.83 890.33 545.17 897 547.5C895.5 550.33 894 553.16 892.5 555.99C874 555.99 855.5 555.99 837 555.99C835.8 552.88 835.85 550.25 836.5 547C841 545.67 845.49 544.33 849.99 543C849.99 513.83 849.99 484.67 849.99 455.5C846.75 452.24 843.81 449.04 841 445.5C839.67 443.83 836.88 442.38 836.19 440.31C835.88 439.4 836.06 438.43 836 437.5C839.2 435.01 843.54 434.25 847.31 432.81C855.09 429.85 867.54 423.08 875.5 423ZM1116 484.99C1089.17 484.99 1062.33 484.99 1035.5 484.99C1034.56 489.71 1035.25 493.93 1035.97 498.53C1036.22 500.11 1035.88 501.72 1036.19 503.31C1039.56 520.84 1051.37 536.12 1069.53 538.97C1085.01 541.39 1098.94 534.88 1111.5 527C1112.67 528.83 1113.83 530.67 1115 532.5C1113.5 540.02 1106.13 545.54 1100.03 549.53C1083.72 560.22 1054.8 562.22 1038.03 551.47C1009.49 533.18 1005.69 497.09 1013.19 466.69C1013.74 464.44 1014.99 462.46 1015.81 460.31C1025.26 435.54 1051.3 419.86 1077.53 423.97C1079.11 424.22 1080.72 423.88 1082.31 424.19C1091.5 425.96 1101.05 431.02 1107 438.5C1114.41 447.83 1118.82 464.64 1116.97 476.47C1116.51 479.42 1116 481.87 1116 484.99ZM1161 423C1161 433.33 1161 443.67 1161 454C1163.95 450.07 1165.58 445.07 1168.53 441.03C1177.05 429.36 1190.76 420.25 1205.69 423.81C1209.2 424.65 1214.14 425.9 1216.47 429.03C1221.24 435.43 1223.49 445.94 1218.47 452.97C1211.98 462.05 1195.54 463.44 1189.53 452.97C1187.93 450.17 1187.17 446.1 1186.5 443C1181.9 443.92 1179.61 446.81 1175.97 449.47C1172.66 451.88 1163.12 461.77 1162.19 465.69C1161.04 470.49 1162 476.56 1162 481.5C1162 492.17 1162 502.83 1162 513.5C1162 522.36 1160.77 532.37 1162.5 541C1171 542.83 1179.5 544.67 1188 546.5C1186.5 549.67 1185 552.83 1183.5 556C1163.02 556 1142.55 556 1122.07 556C1122.07 553.17 1122.07 550.33 1122.07 547.5C1126.71 545.5 1131.36 543.5 1136 541.5C1136 522.83 1136 504.17 1136 485.5C1136 477.48 1137.22 466.17 1135.97 458.53C1134.77 451.19 1121.51 445.16 1121 437.5C1124.2 435.01 1128.54 434.25 1132.31 432.81C1140.41 429.72 1152.63 423.08 1161 423ZM1305.86 424.5C1305.86 437.19 1305.86 449.88 1305.86 462.56C1304.07 462.56 1302.29 462.56 1300.5 462.56C1298.28 460.55 1297.28 457.57 1295.47 455.03C1292.84 451.34 1289.55 447.35 1286.31 444.19C1282.88 440.82 1277.1 437.15 1272.31 436.19C1261.77 434.08 1246.99 437.03 1245.03 449.53C1241.28 473.47 1268.26 476.07 1284.31 482.19C1307.76 491.13 1316.92 508.72 1311.81 533.31C1311.24 536.06 1309.73 538.41 1308.16 540.66C1300.59 551.48 1291.49 555.93 1278.47 557.97C1275.87 558.38 1273.13 557.62 1270.53 558.03C1269.44 558.2 1268.57 558.9 1267.47 558.97C1265.94 559.07 1264.91 558.26 1263.47 558.03C1261.52 557.73 1259.48 558.27 1257.53 557.97C1250.26 556.83 1243.65 553.43 1236.5 552C1232.5 554 1228.5 556 1224.5 558C1223.67 543.56 1222.83 529.13 1222 514.69C1224.17 514.69 1226.33 514.69 1228.5 514.69C1231.13 516.58 1232.2 521.23 1234.16 524.34C1236.44 527.99 1239.01 531.51 1241.53 534.97C1252.17 549.54 1286.58 554.28 1290.81 532.31C1294.87 511.25 1270.7 507.15 1256.69 501.81C1249.4 499.03 1242.37 496.09 1236.03 491.47C1224.21 482.84 1221.66 464.82 1224.19 451.69C1226.34 440.51 1235.38 429.45 1246.69 426.19C1250.95 424.96 1255.14 424.65 1259.47 423.97C1262.5 423.49 1265.23 422.52 1268.47 423.03C1272.71 423.7 1277.08 424.31 1281.31 425.19C1284.08 425.76 1286.71 427.62 1289.53 427.97C1295.11 428.67 1300.18 423.94 1305.86 424.5ZM1361 423C1361 462.33 1361 501.67 1361 541C1368 543.17 1375 545.33 1382 547.5C1380.5 550.33 1379 553.17 1377.5 556C1358.71 556 1339.92 556 1321.13 556C1321.13 553 1321.13 550 1321.13 547C1325.59 545.67 1330.04 544.33 1334.5 543C1335.8 536.51 1335 529.17 1335 522.5C1335 509.5 1335 496.5 1335 483.5C1335 477.86 1336.23 461.07 1334.81 456.69C1332.37 449.15 1321.56 445.83 1321 437.5C1324.69 434.51 1329.91 433.49 1334.31 431.81C1342.7 428.62 1351.91 423.08 1361 423ZM886.57 426.01C905.43 426.01 924.3 426.01 943.17 426.01C943.17 429.01 943.17 432 943.17 435C937.61 436.67 932.06 438.33 926.5 440C925.85 444.84 933.68 460.1 935.81 465.69C938.94 473.89 942.06 482.11 945.19 490.31C946.62 494.08 948.7 497.82 949.81 501.69C951.05 505.96 952.74 510.36 953.81 514.69C954.87 518.98 955.12 523.55 957 527.5C959.42 524.93 963 508.5 964.19 503.69C965.4 498.79 968.01 494.03 969.81 489.31C971.95 483.7 973.67 477.93 975.81 472.31C979.67 462.2 982.18 451.14 987 441.5C980.69 439.33 974.37 437.17 968.06 435C968.06 432.01 968.06 429.02 968.06 426.03C984.37 426.03 1000.69 426.03 1017 426.03C1017.67 428.85 1018.33 431.68 1019 434.5C1015.55 436.22 1007.88 438.43 1005.53 441.03C1002.79 444.08 997.61 460.59 995.81 465.31C987.58 486.9 978.42 508.1 970.19 529.69C967.8 535.95 963.17 551.47 959.5 556C955.02 556 949.49 556.9 945.5 555C943.64 552.61 942.9 549.53 941.81 546.69C939.63 540.96 936.99 535.41 934.81 529.69C927.99 511.79 919.01 494.2 912.19 476.31C909.37 468.92 906.01 461.72 903.19 454.31C901.79 450.65 900.79 446.29 898.47 443.03C895.74 439.21 890.14 437.13 886.57 434.5C886.57 431.67 886.57 428.84 886.57 426.01ZM1090 471.97C1090 462.02 1090.59 451.42 1084.47 443.03C1081.6 439.1 1077.09 437.86 1072.69 436.81C1052.47 431.99 1037.03 453.88 1036 471.97C1054 471.97 1072 471.97 1090 471.97ZM240.5 440.93C242.28 441.79 244.05 442.64 245.83 443.5C246.72 470.94 247.61 498.39 248.5 525.83C243.07 525.83 237.64 525.83 232.21 525.83C233.17 498.39 234.14 470.94 235.1 443.5C236.9 442.64 238.7 441.79 240.5 440.93ZM156.13 444.09C156.13 446.56 156.13 449.03 156.13 451.5C165.7 457.32 178.08 457.36 188.84 456.06C188.84 453.65 188.84 451.24 188.84 448.83C180.97 449.46 173.37 450.08 165.66 447.75C162.39 446.76 159.34 445.16 156.13 444.09ZM324.82 444.14C320.57 445.41 316.59 447.66 312.16 448.56C305.39 449.94 298.96 449.34 292.16 448.88C292.16 451.28 292.16 453.67 292.16 456.07C302.96 457.47 315.16 457.15 324.82 451.5C324.82 449.05 324.82 446.59 324.82 444.14ZM225.64 474C225.64 475.83 225.64 477.67 225.64 479.5C222.34 480.1 219.06 480.4 215.83 481.42C206.76 484.26 199.15 489.51 189.47 490.8C169.59 493.45 160.26 488.47 142.87 481.5C143.83 479.83 145.28 477.32 147.55 477.1C150.91 476.77 155.69 480.47 158.74 481.74C164.79 484.28 170.98 485.18 177.5 485.44C183.06 485.66 188.93 485.14 194.3 483.71C205.88 480.63 212.61 474.29 225.64 474ZM333.5 476.94C334.96 478.46 336.42 479.98 337.89 481.5C331.05 484.31 324.57 488.03 317.33 489.74C301.62 493.44 285.71 491.08 271.35 484.14C267.9 482.48 264.28 480.81 260.45 480.25C259.02 480.04 256.21 480.57 255.27 479.25C254.54 478.23 254.94 475.69 254.91 474.5C267.93 472.12 279.03 483.09 291.53 484.85C299.87 486.03 308.98 485.78 317.09 483.54C322.82 481.97 327.82 478.46 333.5 476.94Z" fill="#ffffff" fill-rule="evenodd" stroke="#ffffff" stroke-width="0.25" stroke-linejoin="round"/>
<path d="M598.8 141.4C605.12 140.27 612.1 140.66 618.5 140.88C642.19 141.7 664.85 150.69 679.45 170.08C690.66 184.97 694.92 203.29 696.31 221.48C699.02 256.95 687.64 296.39 653.26 312.74C646.12 316.13 638.19 318.48 630.38 319.68C604.21 323.7 575.06 318.89 555.12 300.39C529.1 276.25 525.25 231.73 533.63 199.22C536.56 187.86 541.48 176.68 549.06 167.59C562.01 152.07 579.41 144.86 598.8 141.4ZM1494.5 140.95C1495.6 157.13 1496.71 173.32 1497.81 189.5C1495.04 190.17 1492.27 190.85 1489.5 191.52C1480.51 179.24 1468.48 159.48 1453.14 155.43C1434.92 150.61 1418.27 157.97 1418.9 178.5C1418.99 181.76 1419.44 184.77 1420.67 187.81C1426.58 202.43 1447.26 206.88 1460.34 212.19C1482.88 221.35 1500.93 232.26 1504.08 258.5C1504.61 262.88 1505.2 267.03 1504.96 271.5C1504.64 277.32 1503.39 283.32 1501.31 288.77C1489.83 318.97 1452.7 324.95 1424.66 318.71C1417.93 317.22 1411.76 314.45 1405.5 311.66C1400.17 314.72 1394.83 317.79 1389.5 320.86C1387.76 302.07 1386.02 283.29 1384.27 264.5C1387.35 263.99 1390.42 263.48 1393.5 262.97C1404.31 275.93 1410.86 293.71 1426.31 302.2C1444.49 312.2 1470.78 306.96 1470.82 282.5C1470.84 269.92 1463.5 261.24 1452.81 255.67C1434.45 246.11 1410.48 242.5 1397.1 225.34C1383.2 207.48 1382.82 177.35 1397.03 159.57C1405.53 148.93 1419.27 142.81 1432.51 141.07C1442.12 139.81 1452.93 140.52 1462.4 142.22C1466.63 142.97 1477.15 146.97 1480.46 146.79C1484.14 146.59 1490.73 142.34 1494.5 140.95ZM1563.64 154.28C1563.64 165.73 1563.64 177.18 1563.64 188.62C1576.26 188.62 1588.88 188.62 1601.5 188.62C1602.49 193.51 1601.36 199.1 1600.5 204.07C1588.33 204.07 1576.15 204.07 1563.98 204.07C1563.45 223.86 1563.88 243.71 1563.88 263.5C1563.88 272.31 1562.32 283.21 1567.56 290.94C1575.59 302.75 1593.35 296.81 1603.5 291.63C1604.64 293.92 1605.78 296.21 1606.92 298.5C1592.33 323.75 1543.32 331.86 1529.28 302.22C1524.26 291.63 1524.88 279.92 1524.88 268.5C1524.88 254.5 1524.88 240.5 1524.88 226.5C1524.88 219.16 1525.63 211.31 1524.5 204.08C1518.83 204.08 1513.17 204.08 1507.5 204.08C1507 201.24 1506.19 196.74 1507.53 194.02C1509.05 190.93 1517.42 185.31 1520.35 182.9C1528.17 176.45 1535.93 169.74 1543.48 162.99C1545.97 160.76 1551.64 154.77 1554.55 153.85C1557.47 152.94 1560.81 153.62 1563.64 154.28ZM1780.72 154.12C1780.72 165.58 1780.72 177.04 1780.72 188.5C1791.2 188.98 1810.47 186.85 1819.46 189.5C1818.81 194.36 1818.15 199.22 1817.5 204.08C1805.33 204.08 1793.15 204.08 1780.98 204.08C1780.45 223.86 1780.88 243.71 1780.88 263.5C1780.88 272.22 1779.36 283.26 1784.58 290.91C1792.62 302.68 1810.34 296.89 1820.5 291.66C1821.66 293.94 1822.82 296.22 1823.97 298.5C1809.39 323.93 1760.53 331.69 1746.32 302.2C1740.82 290.79 1742 277.8 1742 265.5C1742 245.04 1742.36 224.55 1741.93 204.1C1736.12 204.1 1730.31 204.1 1724.5 204.1C1724.01 201.25 1723.2 196.76 1724.55 194.04C1725.74 191.65 1734.84 185.02 1737.36 182.9C1745.15 176.38 1752.89 169.74 1760.5 163.01C1763.05 160.75 1768.58 154.85 1771.56 153.9C1774.46 152.97 1777.83 153.61 1780.72 154.12ZM606.72 155.37C588.72 158.27 581.22 174.31 577.75 190.42C576.04 198.35 575.3 206.4 574.88 214.5C574.57 220.52 574.3 226.47 574.3 232.5C574.3 259.85 576.3 306.6 613.48 306.55C633.28 306.53 643.21 293.23 647.83 275.45C649.88 267.53 650.42 259.63 651.25 251.53C651.94 244.83 652.09 238.24 652.09 231.5C652.09 226.51 652.17 221.49 651.96 216.5C651.04 193.98 646.94 158.27 618.5 155.14C614.66 154.71 610.53 154.75 606.72 155.37ZM1033.5 201.23C1033.41 202.31 1033.02 202.82 1033.72 203.85C1034.59 205.14 1037.26 206.03 1038.54 206.97C1041.62 209.26 1044.25 211.97 1046.29 215.24C1055.07 229.3 1051.03 249.45 1038.34 259.87C1024.97 270.85 1008.32 273.56 991.5 273.2C987.17 273.11 982.68 271.41 978.49 271.5C972.11 271.63 966.38 278.98 967.51 285C968.38 289.59 972.14 291.59 976.5 291.96C984.71 292.65 993.26 292 1001.5 292C1027.07 292 1061.91 289.08 1068.88 321.55C1070.01 326.8 1070.26 332.13 1070.05 337.5C1069.78 344.55 1067.43 352.06 1063.46 357.94C1046.34 383.28 1008.69 384.5 981.5 383.07C968.76 382.4 955.06 380.51 944.04 373.45C930.66 364.87 927.57 344.61 940.61 334.08C947.92 328.17 957.09 326.94 965.8 324.5C958.89 322.78 951.88 321.12 946.56 315.95C937.47 307.1 936.99 290.93 944.55 281.08C948.05 276.53 953.42 273.27 958.72 271.24C961.15 270.3 963.63 270 965.77 268.5C958.46 265.66 951.32 261.3 946.59 254.89C933.3 236.9 939.68 209.3 957.09 196.56C979 180.51 1019.05 183.23 1042.5 194.75C1043.3 188.12 1040.16 183.16 1046.66 177.16C1056.18 168.37 1072.82 173.58 1074.72 186.56C1075.12 189.28 1075 192.09 1074.31 194.73C1069.24 214.18 1046.47 206.29 1033.5 201.23ZM754.28 185.56C754.28 195.66 754.28 205.76 754.28 215.86C760.15 207.74 762 199.86 770.55 193.01C782.56 183.39 806.18 181.46 814.41 197.08C825.2 217.57 804.68 240.91 784.71 227.78C778.47 223.68 777.72 217.36 775.5 210.92C769.32 213.58 764.43 218.5 759.92 223.41C758.34 225.14 755.79 227.28 755.2 229.64C754.23 233.52 755.03 238.5 755.03 242.5C755.03 251.17 755.03 259.83 755.03 268.5C755.03 278.95 753.62 293.01 755.5 302.95C763.56 304.8 771.62 306.65 779.67 308.5C778.62 311.63 777.56 314.76 776.5 317.89C752.36 317.89 728.22 317.89 704.07 317.89C704.07 315.09 704.07 312.3 704.07 309.5C707.81 307.83 711.54 306.17 715.27 304.5C717.57 297.86 716 285.85 716 278.5C716 266.17 716 253.83 716 241.5C716 235.85 717.02 229.09 715.87 223.55C714.37 216.33 703.98 209.52 703.95 200.5C712.47 197.02 721.48 194.51 730.23 191.66C738.21 189.07 745.79 185.56 754.28 185.56ZM927.65 250.7C902.6 250.7 877.55 250.7 852.5 250.7C851.87 255.55 852.8 260.75 853.91 265.52C855.24 271.22 857.23 277 860.63 281.84C875.33 302.76 903.7 297.96 921.5 284.33C923.34 286.38 925.19 288.44 927.03 290.5C924.89 299.63 916.85 307.69 909.13 312.59C890.27 324.56 859.4 323.67 840.7 311.79C815.38 295.7 810.42 261.94 816.32 234.75C821.38 211.44 840.42 192.34 863.73 187.34C887.93 182.14 918 188.59 926.56 214.87C928.25 220.05 929.01 225.06 929.18 230.5C929.39 237.24 929.52 244.21 927.65 250.7ZM1116.68 186.31C1140.35 182.49 1168.7 188.94 1183.47 209.06C1192.61 221.51 1195.92 237.3 1195.94 252.5C1195.97 282.32 1183.82 309.05 1153.32 317.75C1128.54 324.82 1094.7 321.49 1077.59 299.88C1057.75 274.82 1057.42 228.01 1079.69 204.18C1089.36 193.83 1102.97 188.52 1116.68 186.31ZM1249.74 185.56C1249.74 193.97 1249.74 202.39 1249.74 210.81C1252.98 208.94 1255.22 204.32 1257.95 201.46C1263 196.16 1268.86 191.92 1275.67 189.19C1281.49 186.86 1287.29 186.1 1293.5 185.76C1297.82 185.52 1302.36 185.8 1306.52 187.01C1339.59 196.65 1334 235.69 1334 262.5C1334 268.83 1334 275.17 1334 281.5C1334 288.72 1333.03 296.82 1334.5 303.85C1340.07 305.73 1345.63 307.62 1351.2 309.5C1349.97 312.3 1348.73 315.1 1347.5 317.9C1325.92 317.9 1304.34 317.9 1282.75 317.9C1282.75 315.1 1282.75 312.3 1282.75 309.5C1286.79 307.5 1290.83 305.5 1294.87 303.5C1295.16 288.84 1294.93 274.16 1294.93 259.5C1294.93 251.44 1295.86 242.72 1294.6 234.76C1292.77 223.25 1286.63 213.31 1273.59 213.5C1267.83 213.59 1252.93 217.97 1250.6 224.12C1249.41 227.29 1250.39 243.06 1250.39 247.5C1250.39 259.5 1250.39 271.5 1250.39 283.5C1250.39 290.03 1249.66 297.09 1250.74 303.5C1256.46 305.5 1262.17 307.5 1267.88 309.5C1266.42 312.3 1264.96 315.1 1263.5 317.9C1242.1 317.9 1220.69 317.9 1199.29 317.9C1199.29 315.1 1199.29 312.3 1199.29 309.5C1203.38 307.5 1207.47 305.5 1211.55 303.5C1211.55 285.5 1211.55 267.5 1211.55 249.5C1211.55 242.34 1212.71 230.39 1211.51 223.79C1210.2 216.55 1199.55 208.95 1198.98 200.5C1207.14 196.5 1216.61 194.48 1225.24 191.68C1233.32 189.05 1241.15 185.56 1249.74 185.56ZM1737.5 304.2C1737.86 306.06 1738.6 308.44 1737.96 310.33C1736.88 313.44 1730.49 316.1 1727.73 317.25C1717.29 321.59 1703.07 323.08 1692.71 317.79C1688.31 315.55 1685.04 311.97 1683.1 307.44C1682.2 305.32 1681.95 303.63 1680.5 302.05C1665.71 330.24 1614.87 327.27 1609.16 293.44C1608.43 289.07 1608.63 283.91 1608.97 279.5C1611.45 246.99 1655.47 243.37 1679.56 248.5C1680.27 244.03 1680.38 239.05 1680 234.5C1679.79 231.87 1679.06 228.93 1678.06 226.48C1671.39 210.03 1650.36 210.35 1635.72 213.34C1628.94 214.72 1622.82 217.9 1616.5 220.54C1615.36 217.53 1614.22 214.51 1613.07 211.5C1620.85 202.25 1629.76 194.93 1641.23 190.67C1665.21 181.74 1702.98 182.2 1714.67 209.79C1720.37 223.24 1718.93 238.22 1718.93 252.5C1718.93 264.17 1718.89 275.83 1718.93 287.5C1718.94 292.14 1718.72 298.56 1722.58 301.94C1726.46 305.35 1732.78 304.33 1737.5 304.2ZM1936.83 231C1936.83 233 1936.83 235 1936.83 237C1936.14 241.5 1935.44 246 1934.75 250.5C1909.66 250.69 1884.58 250.88 1859.5 251.07C1859.23 256.66 1860.23 262.38 1861.63 267.8C1862.71 272.02 1864.25 276.19 1866.56 279.93C1876.07 295.28 1895.85 299.22 1912.27 293.7C1918.23 291.7 1923.44 288.15 1928.5 284.53C1930.38 286.52 1932.26 288.51 1934.14 290.5C1933.16 294.46 1931.04 297.86 1928.61 301.15C1912.85 322.58 1878.79 325.93 1855.63 315.87C1829.87 304.68 1819.27 276.2 1821.26 249.5C1824.17 210.7 1851.65 183.35 1891.5 185.89C1901.29 186.51 1910.76 188.76 1918.88 194.6C1926.86 200.34 1932.43 209.13 1934.82 218.61C1935.8 222.5 1935.32 227.73 1936.83 231ZM893.97 236.81C895.53 232.93 895.12 228.67 895.1 224.5C895.04 210.29 889.1 195.18 871.74 200.27C857.91 204.33 853.12 224.44 853.09 236.81C866.72 236.81 880.34 236.81 893.97 236.81ZM991.7 199.32C980.14 201.37 978.11 213.59 977.89 223.5C977.61 236.03 975.8 259.22 993.5 260.07C995.78 260.18 998.2 260.23 1000.45 259.81C1009.92 258.04 1012.48 247.7 1013.02 239.5C1014.05 223.94 1015.71 195.07 991.7 199.32ZM1128.58 199.34C1115.87 199.98 1109.68 210.18 1107.1 221.52C1105.75 227.46 1105.19 233.43 1104.98 239.5C1104.83 243.84 1104.31 248.17 1104.26 252.5C1104.04 271.46 1104.35 308.56 1131.5 307.05C1144.08 306.35 1149.49 295.36 1152.1 284.53C1156.4 266.66 1156.08 237.62 1151.62 219.78C1148.77 208.39 1141.41 198.69 1128.58 199.34ZM1901.14 236.81C1905.02 224.71 1902.81 202.35 1887.56 199.69C1883.91 199.06 1880.04 199.53 1876.67 201.15C1864.58 206.96 1860.21 224.68 1860.11 236.81C1873.78 236.81 1887.46 236.81 1901.14 236.81ZM1680.02 260.5C1675.2 259.54 1670.22 260.01 1665.34 260.69C1652.23 262.51 1644.32 269.11 1646.18 283.47C1648.57 301.87 1668.01 300.97 1680.02 292.5C1680.02 281.83 1680.02 271.17 1680.02 260.5ZM977.79 327.46C975.76 327.9 973.93 329.62 972.44 330.96C964.06 338.56 962.15 352 969.39 361.15C973.1 365.84 978.71 368.04 984.38 369.3C999.01 372.57 1028.38 371.13 1035.84 355.33C1037.15 352.56 1037.86 349.55 1037.98 346.5C1038.95 322.46 1009.35 327.37 993.5 327.37C988.58 327.37 982.6 326.44 977.79 327.46Z" fill="#d73f09" fill-rule="evenodd" stroke="#d73f09" stroke-width="0.25" stroke-linejoin="round"/>
<path d="M385.29 71.5C377.69 87.75 370.1 103.99 362.5 120.24C359.02 120.68 354.71 121.16 351.8 119.5C352.64 117.36 353.48 115.21 354.32 113.07C344.71 113.07 335.11 113.07 325.5 113.07C324.54 115.54 323.58 118.02 322.61 120.5C329.58 128.02 336.54 135.54 343.5 143.06C352.62 135.59 361.11 129.62 372.52 126.05C379.39 123.9 387.27 122.82 394.5 123.11C451.3 125.43 467.7 193.97 471.81 239.5C472.77 250.17 473.13 260.78 473.13 271.5C473.13 284.56 472.52 297.51 470.71 310.44C452.54 440.18 348.71 535.04 240.5 596.95C218.99 585.92 198.56 571.56 178.88 557.6C101.47 502.72 32.35 423.88 13.12 328.46C7.51 300.61 6.43 271.87 8.79 243.5C10.48 223.26 13.79 203 20.17 183.65C24.34 171 30.28 158.6 38.57 148.1C47.72 136.49 60.5 126.02 71.08 115.58C89.01 97.87 107.05 80.18 125.34 62.85C139.96 48.99 154 31.25 171.08 20.57C185.94 11.27 203.24 8.06 220.51 7.31C239.36 6.49 257.82 12.21 273.97 21.54C284.32 27.51 293.98 37.66 305.77 40.67C313.75 42.71 326.94 41.3 335.5 41.3C337.94 41.3 340.86 40.86 343.24 41.4C347.28 42.31 351.76 47.06 355.1 49.43C361.15 53.71 367.16 58.03 373.2 62.33C377.27 65.22 381.99 67.81 385.29 71.5ZM372.4 74.5C365.27 68.79 357.52 63.76 350.07 58.46C347.34 56.52 343.72 52.76 340.46 51.99C337.69 51.34 334.33 51.84 331.5 51.84C321.41 51.84 310.35 53.19 300.66 49.81C289.66 45.98 280.54 37.84 270.83 31.65C261.34 25.6 250.55 21.03 239.47 19.08C217.76 15.27 192.05 18.2 173.65 31.1C166.83 35.88 161.4 42.2 155.35 47.86C147.96 54.78 140.83 62 133.53 69.04C126.58 75.75 119.89 82.75 112.84 89.35C108.77 93.16 103.71 97.01 100.81 101.73C112.56 101.73 124.32 101.73 136.08 101.73C136.08 115.54 136.08 129.36 136.08 143.18C160.81 144.19 185.75 143.32 210.5 143.32C219.85 143.32 240.36 144.83 248.27 142.5C245.92 140.11 240.28 133.02 237.38 132.1C231.68 130.28 217.42 132.69 210.17 131.5C214.21 125.5 219.1 120.12 221.71 113.24C228.01 96.59 222.96 76.68 209.42 65.05C204.82 61.1 199.24 57.89 193.41 56.18C191.09 55.49 183.13 55.01 181.79 53.74C180.76 52.76 181.29 50.76 181.33 49.5C187.64 48.35 194.89 50.31 200.83 52.6C227.16 62.75 240.7 94.63 229.05 120.5C233.01 122.02 237.89 120.14 241.81 121.66C243.94 122.49 245.89 125.44 247.48 127.02C251.04 130.54 259.36 140.4 263.02 142.5C265.86 144.13 270.29 143.32 273.5 143.32C281.53 143.32 293.71 144.87 301.01 142.5C295.12 135.5 289.23 128.5 283.34 121.5C290.46 120.62 291.72 123.7 296.73 127.78C300.56 130.9 311 141.54 314.67 142.93C318.4 144.34 325.35 143.7 328.89 142.5C322.65 135.83 316.4 129.17 310.16 122.5C312.43 117.5 314.7 112.5 316.97 107.5C311.34 99.86 305.72 93.9 307.36 83.5C308.57 83.44 310.73 82.88 311.67 83.84C312.77 84.95 312.9 88.57 313.46 90.08C314.98 94.16 317.87 97.73 321.61 99.95C328.49 104.05 336.84 102.92 344.5 102.92C349.47 102.92 354.76 103.41 359.63 102.5C363.89 93.17 368.15 83.83 372.4 74.5ZM281.87 51.5C281.87 55.45 281.87 59.39 281.87 63.34C267.54 57.02 257.05 44.18 242.28 38.23C236.27 35.81 229.93 34.44 223.5 33.79C221.96 33.63 215.5 33.56 214.72 32.95C213.68 32.13 214.09 30.63 214 29.5C218.12 26.24 226.38 28.23 231.52 28.82C250.99 31.06 265.21 42.35 281.87 51.5ZM319.93 61.31C320.15 62.86 320.91 64.77 319.94 66.26C319.17 67.45 316.65 67.97 315.51 69C311.27 72.84 314.04 74.97 306.94 75.04C306.94 70.46 306.94 65.88 306.94 61.31C311.27 61.31 315.6 61.31 319.93 61.31ZM338.09 75.1C338.09 73.08 338.09 71.05 338.09 69.03C341.91 66.1 349.08 65.42 348.62 72.42C348.2 78.82 341.62 77.83 338.09 75.1ZM125.5 111.95C117.17 111.9 108.83 111.93 100.5 111.93C97.27 111.93 92.75 111.12 89.68 112.18C87.59 112.9 85.54 115.96 83.98 117.49C79.26 122.1 74.58 126.75 69.83 131.33C62.22 138.67 52.95 145.75 47.17 154.69C36.11 171.78 41.18 194.4 57.6 205.96C74.52 217.87 98.79 212.42 109.98 195.42C114.42 188.68 116.12 180.39 118.31 172.75C120.61 164.73 124.3 156.57 125.8 148.38C126.73 143.36 125.98 137.6 125.98 132.5C125.98 125.79 126.74 118.49 125.5 111.95ZM114.23 123.5C114.23 125.72 114.58 128.28 114.01 130.45C113.16 133.71 105.91 141.92 103.58 145.11C97.26 153.77 90.83 162.37 84.56 171.08C80.76 176.37 77.18 182.46 72.5 186.99C71.34 186.16 70.18 185.33 69.01 184.5C71.98 177.98 76.55 171.95 80.39 165.88C86.6 156.07 92.81 146.27 98.96 136.43C100.45 134.05 105.62 124.14 107.7 123.23C109.63 122.38 112.31 123.15 114.23 123.5ZM240.5 584.97C321.6 537.68 402.06 471.48 439.23 382.73C446.33 365.76 452.92 348.42 456.79 330.4C460.87 311.44 463 291.97 463 272.5C463 242.14 459.72 210.9 449.21 182.3C443.37 166.41 434.22 150.15 419.35 141.11C402.46 130.84 379.7 131.03 362.7 141.21C359.04 143.41 355.57 146.02 352.48 148.97C350.63 150.74 349.11 153.38 346.47 153.76C339.46 154.76 331.58 153.78 324.5 153.78C309.17 153.78 293.83 153.78 278.5 153.78C230.83 153.78 183.17 153.71 135.5 153.78C131.65 159.48 129.79 170.45 127.76 177.3C126.47 181.64 125.3 186.08 123.79 190.36C123.09 192.35 121.72 194.48 121.48 196.59C120.73 203.25 122.51 210.79 122.83 217.5C123.55 232.78 123.94 248.29 125.44 263.5C122.13 264.77 118.81 266.03 115.5 267.3C106.41 252.36 97.32 237.43 88.24 222.5C84.64 222.02 81.17 222.88 77.5 222.76C73.83 222.65 70.15 221.84 66.55 221.5C79.68 238.83 92.8 256.17 105.93 273.5C103.79 276.05 101.64 278.6 99.5 281.15C77.21 270.93 54.93 260.72 32.64 250.5C33.5 234.32 36.15 218.22 39.81 202.5C36.93 198.98 34.8 194.54 33.34 190.23C32.62 188.07 32.32 185.32 31.34 183.5C26.82 193.44 24.94 204.84 22.93 215.48C19.52 233.58 17.86 251.97 17.86 270.5C17.86 386.23 90.56 480.39 180.41 546.04C199.52 560.01 219.54 573.87 240.5 584.97ZM446.5 306.33C431.5 291.26 416.5 276.18 401.5 261.1C394.83 265.93 388.17 270.75 381.5 275.58C370.83 265.09 360.17 254.6 349.5 244.11C339.17 254.61 328.83 265.11 318.5 275.61C311.83 270.78 305.17 265.95 298.5 261.11C288.3 271.24 278.1 281.37 267.9 291.5C269.6 299.37 271.3 307.23 273 315.1C270.02 315.1 267.04 315.1 264.06 315.1C267.04 327.9 270.02 340.7 273 353.5C286.6 359.47 297.02 364.11 312.39 360.78C318.16 359.52 323.28 356.44 328.67 354.17C333.97 351.93 339.77 350.69 345.5 350.24C353.02 349.64 361.27 350.57 368.37 353.17C377.61 356.56 385.35 361.41 395.5 361.83C402.29 362.11 408.88 361.17 415.21 358.67C421.92 356.02 428.69 351.19 436.1 351.5C429.44 377.38 414.25 403.91 399.57 426.09C359.18 487.14 302.01 530.73 240.5 568.71C227.9 561.75 215.76 553.7 203.93 545.55C156.58 512.91 113.57 474.14 81.35 426.18C67.38 405.38 50.67 375.8 44.8 351.5C52.29 351.32 58.96 356.04 65.75 358.73C72.04 361.22 78.75 362.13 85.5 361.83C94.83 361.42 102.07 357.33 110.49 353.94C118.2 350.82 127.19 349.49 135.48 350.24C141.24 350.76 146.95 352 152.3 354.21C158.04 356.58 163.33 359.75 169.5 360.97C184.58 363.97 194.55 359.23 207.86 353.5C209.41 346.46 210.95 339.42 212.5 332.39C195.82 339.22 186.6 344.37 167.55 340.87C155.16 338.59 147.29 331.01 133.5 330.17C116.49 329.14 103.11 340.51 86.5 341.87C78.24 342.54 69.26 341.11 61.67 337.81C57.54 336.01 53.58 333.63 49.26 332.29C45.45 331.12 41.57 330.96 37.72 329.98C37.72 327.67 37.72 325.36 37.72 323.05C50.02 323.37 57.65 329.45 68.75 332.71C74.12 334.29 79.85 334.78 85.44 334.54C96.46 334.08 104.53 328.49 114.68 325.26C121.58 323.06 129.29 322.51 136.5 323.09C148.56 324.07 157.93 331.73 169.55 333.84C186.55 336.93 199.35 330.15 214.5 324.11C215.27 321.1 216.04 318.09 216.81 315.07C213.8 315.07 210.78 315.07 207.77 315.07C208.35 312.52 208.92 309.97 209.5 307.41C205.53 307.69 202.01 310.22 198.19 311.6C191.81 313.89 184.28 315.14 177.5 314.76C171.84 314.44 166.03 313.68 160.69 311.75C151.05 308.26 143.1 303.17 132.5 303C114.04 302.7 102.26 314.46 83.5 314.83C68.88 315.12 62 309.52 49.33 305.18C44.24 303.43 38.84 303.4 33.62 302.5C32.08 292.77 30.54 280.65 32.5 271.02C52.87 278.18 73.23 285.34 93.6 292.5C93.6 296.03 93.6 299.57 93.6 303.1C99.82 302.08 104.96 298.5 110.78 296.32C117.44 293.81 124.39 292.82 131.5 292.85C138.26 292.87 144.9 293.91 151.24 296.29C157.08 298.49 162.27 302.09 168.51 303.09C168.51 299.56 168.51 296.03 168.51 292.5C184.47 287.17 200.43 281.83 216.39 276.5C217.76 269.72 219.13 262.95 220.5 256.17C201.5 264.79 182.5 273.4 163.5 282.01C161.04 279.17 158.57 276.34 156.11 273.5C182.91 238.33 209.7 203.16 236.5 168C276.09 168 315.67 168 355.26 168C364.78 151.47 385.99 143.44 404.27 149.25C414.95 152.65 422.99 161.61 428.5 170.99C442.26 194.42 446 222.94 448.08 249.5C449.55 268.29 449.9 287.75 446.5 306.33ZM142.5 168.01C163.69 168.01 184.88 168.01 206.07 168.01C186.22 201.1 166.36 234.18 146.5 267.27C143.5 266.34 140.5 265.41 137.5 264.48C135.58 255.15 138.26 236.78 138.87 226.5C139.79 211.16 140.56 195.81 141.73 180.5C142.06 176.32 141.7 172.11 142.5 168.01ZM349.5 193.17C348.17 196.71 346.83 200.25 345.5 203.79C341.49 204.3 336.92 203.41 333.5 205.34C336.36 207.73 339.22 210.11 342.09 212.5C341.7 216.31 338.72 221.09 340.09 224.5C343.23 222.39 346.36 220.27 349.5 218.16C352.83 220.34 356.17 222.52 359.5 224.7C360.54 220.63 357.87 216.67 357.4 212.5C360.31 210.17 363.21 207.83 366.11 205.5C363.23 203.26 358.33 204.19 354.5 204.1C352.79 200.5 352.34 195.74 349.5 193.17ZM240.5 204C237.73 207.13 235.82 224.11 234.83 229.46C231.85 245.5 228.98 261.44 225.85 277.46C224.39 284.95 221.26 295.59 221.5 302.88C224.17 302.37 226.83 301.86 229.5 301.36C224.68 324.62 219.86 347.89 215.04 371.16C218.66 371.16 222.28 371.16 225.91 371.16C222.34 388.93 218.69 406.69 214.9 424.46C213.63 430.44 210.21 438.71 211.5 444.65C218.04 441.96 224.6 439.23 231.22 436.68C233.88 435.65 237.62 433.16 240.49 433.17C243.14 433.18 246.63 435.48 249.08 436.45C255.8 439.12 262.95 443.1 269.98 444.5C265.01 419.83 260.04 395.17 255.07 370.5C258.55 371.05 262.02 371.59 265.5 372.14C260.79 348.75 256.07 325.36 251.36 301.98C254.07 301.98 256.79 301.98 259.5 301.98C255.86 281.09 251.01 257.41 247.08 235.47C245.83 228.48 244.52 221.47 243.22 214.46C242.56 210.93 242.46 206.98 240.5 204ZM297.5 212.32C295.83 215.98 294.17 219.64 292.5 223.3C288.86 223.3 284.16 222.38 281.18 224.5C284.06 226.83 286.95 229.17 289.84 231.5C289.06 235.43 288.28 239.36 287.5 243.28C290.64 243.54 294.96 239.2 297.5 237.16C300.88 239.27 304.27 241.39 307.65 243.5C306.78 239.83 305.91 236.17 305.04 232.5C308.02 229.83 311 227.17 313.98 224.5C310.94 222.42 306.24 223.31 302.5 223.27C300.83 219.62 299.17 215.97 297.5 212.32ZM401.5 212.32C400.17 215.92 398.83 219.52 397.5 223.12C393.62 223.36 388.84 222.46 385.75 224.5C388.74 227.17 391.73 229.83 394.72 232.5C393.46 235.62 390.99 240.37 392.04 243.5C395.53 241.51 399.01 239.51 402.5 237.52C405.63 239.51 408.76 241.51 411.89 243.5C413.02 240.48 410.45 235.65 409.27 232.5C412.27 229.83 415.26 227.17 418.25 224.5C415.15 222.46 410.39 223.34 406.5 223.18C405.19 219.6 404.51 214.48 401.5 212.32ZM337.99 314.5C344.74 320.36 341.05 327.91 332.5 328.09C323.98 328.27 319.21 320.63 326.31 314.5C321.67 308.26 324.32 301.76 332.5 301.95C340.08 302.13 342.59 309.03 337.99 314.5ZM410.19 314.5C417.81 319.66 412.44 328.12 404.5 328.09C396.57 328.06 391.38 319.68 398.87 314.5C393.76 308.68 396.58 301.98 404.5 301.95C412.39 301.91 415.49 308.71 410.19 314.5ZM293.5 302.99C296.74 302.99 299.99 302.99 303.23 302.99C303.23 310.99 303.23 318.99 303.23 327C300.99 327 298.74 327 296.5 327C296.2 323.29 297.29 313.23 296.25 310.53C295.56 308.75 294.11 309.56 293.27 308.25C292.36 306.83 293.23 304.41 293.5 302.99ZM367.5 303.02C370.03 303.02 372.56 303.02 375.09 303.02C373.4 305.18 371.72 307.34 370.03 309.5C372.74 310.28 375.58 310.68 377.48 313.04C378.78 314.67 379.08 316.45 379.14 318.5C379.35 326.3 371.7 329.61 364.78 327.64C362.69 327.05 360.89 325.54 359.85 323.66C355.74 316.23 363.08 308.4 367.5 303.02ZM333.5 307.45C330.57 307.56 330.56 307.56 330.42 310.5C331.44 310.64 332.47 310.77 333.5 310.91C333.5 309.76 333.5 308.6 333.5 307.45ZM403.5 307.16C402.35 309.49 402.36 309.91 404.5 311.5C405.28 310.84 406.06 310.17 406.84 309.5C405.81 307.44 405.72 307.61 403.5 307.16ZM371.5 317.01C368.67 315.53 367.14 315.74 365.36 318.5C366.4 322.65 368.86 323.29 371.99 320.5C371.82 319.34 371.66 318.18 371.5 317.01ZM333.5 321.9C334.35 320.35 335.16 317.79 332.33 317.41C329.73 317.06 330.31 320.1 330.37 321.5C331.42 321.63 332.46 321.77 333.5 321.9ZM406.98 320.5C405.86 317.23 404.41 316.64 402.13 319.5C402.58 320.33 403.04 321.15 403.5 321.98C404.66 321.48 405.82 320.99 406.98 320.5ZM148.5 363.99C144.36 367.16 140.23 370.33 136.09 373.5C136.09 407.67 136.09 441.84 136.09 476C137.95 475.02 141.06 473.45 141.96 471.33C143.52 467.7 142.39 458.72 142.39 454.5C142.39 435.5 142.39 416.5 142.39 397.5C142.39 393.31 141.31 380.32 142.6 377.12C143.63 374.56 147.51 372.9 149.77 371.96C149.77 404.47 149.77 436.99 149.77 469.5C161.52 475.73 173.9 480.04 187.45 477.87C195.52 476.58 202.13 471.81 209.78 469.33C215.52 467.47 221.23 467.13 227.18 466.5C227.18 460.08 227.18 453.67 227.18 447.25C216.96 452.07 206.73 456.88 196.5 461.69C201.95 435.63 207.4 409.56 212.85 383.5C209.06 383.88 205.5 385.21 201.77 384.5C203.01 378.48 204.26 372.46 205.5 366.44C199.43 367.61 193.82 370.91 187.45 371.73C170.93 373.86 162.97 369.41 148.5 363.99ZM331.5 364.03C311.04 375.05 296.62 374 275.5 366.08C276.71 372.22 277.91 378.36 279.12 384.5C275.45 385.25 271.72 383.95 267.96 383.5C268.67 391.28 271.1 399.03 272.7 406.67C274.86 416.93 276.9 427.18 279.19 437.45C280.61 443.8 284.57 456.28 283.5 462.09C273.52 457.13 263.53 452.17 253.55 447.21C253.55 453.64 253.55 460.07 253.55 466.5C259.61 467.23 265.3 467.51 271.15 469.4C278.8 471.87 285.47 476.65 293.54 477.91C307.2 480.03 319.26 475.56 331.17 469.5C331.17 436.98 331.17 404.47 331.17 371.95C333.47 373.47 335.78 374.98 338.08 376.5C339.26 400.72 338.23 425.24 338.23 449.5C338.23 453.93 337.11 467.65 338.52 471.03C339.44 473.21 342.92 475.07 344.83 476.09C344.83 441.89 344.83 407.7 344.83 373.5C340.39 370.34 335.94 367.19 331.5 364.03ZM156.21 386.71C159.73 387.9 163.12 389.85 166.75 390.69C177.88 393.27 189.03 392.27 199.5 387.74C200.69 389.91 200.51 391.87 200.5 394.51C189.27 402.85 168.34 399.21 156.21 394.52C156.21 391.92 156.21 389.31 156.21 386.71ZM324.73 386.71C324.73 389.31 324.73 391.9 324.73 394.5C314.46 398.43 304.56 399.93 293.5 398.91C291.14 398.69 281.89 396.87 280.65 394.89C279.54 393.11 280.33 389.75 280.5 387.79C285.53 389.09 290.28 391.29 295.51 391.93C306.76 393.3 314.5 390 324.73 386.71ZM156.14 415.28C164.54 418.56 172.26 421.34 181.5 420.86C186.36 420.61 191.03 418.85 195.73 418.5C195.73 420.92 195.73 423.34 195.73 425.76C185.06 428.61 165.14 430.27 156.14 422.5C156.14 420.09 156.14 417.68 156.14 415.28ZM324.82 415.25C324.82 417.67 324.82 420.08 324.82 422.5C315.48 430.29 296.19 428.53 285.23 425.87C285.23 423.31 285.23 420.75 285.23 418.19C300.1 422.77 310.76 420.69 324.82 415.25ZM240.5 440.93C238.7 441.79 236.9 442.64 235.1 443.5C234.14 470.94 233.17 498.39 232.21 525.83C237.64 525.83 243.07 525.83 248.5 525.83C247.61 498.39 246.72 470.94 245.83 443.5C244.05 442.64 242.28 441.79 240.5 440.93ZM156.13 444.09C159.34 445.16 162.39 446.76 165.66 447.75C173.37 450.08 180.97 449.46 188.84 448.83C188.84 451.24 188.84 453.65 188.84 456.06C178.08 457.36 165.7 457.32 156.13 451.5C156.13 449.03 156.13 446.56 156.13 444.09ZM324.82 444.14C324.82 446.59 324.82 449.05 324.82 451.5C315.16 457.15 302.96 457.47 292.16 456.07C292.16 453.67 292.16 451.28 292.16 448.88C298.96 449.34 305.39 449.94 312.16 448.56C316.59 447.66 320.57 445.41 324.82 444.14ZM225.64 474C212.61 474.29 205.88 480.63 194.3 483.71C188.93 485.14 183.06 485.66 177.5 485.44C170.98 485.18 164.79 484.28 158.74 481.74C155.69 480.47 150.91 476.77 147.55 477.1C145.28 477.32 143.83 479.83 142.87 481.5C160.26 488.47 169.59 493.45 189.47 490.8C199.15 489.51 206.76 484.26 215.83 481.42C219.06 480.4 222.34 480.1 225.64 479.5C225.64 477.67 225.64 475.83 225.64 474ZM333.5 476.94C327.82 478.46 322.82 481.97 317.09 483.54C308.98 485.78 299.87 486.03 291.53 484.85C279.03 483.09 267.93 472.12 254.91 474.5C254.94 475.69 254.54 478.23 255.27 479.25C256.21 480.57 259.02 480.04 260.45 480.25C264.28 480.81 267.9 482.48 271.35 484.14C285.71 491.08 301.62 493.44 317.33 489.74C324.57 488.03 331.05 484.31 337.89 481.5C336.42 479.98 334.96 478.46 333.5 476.94Z" fill="#000000" fill-rule="evenodd" stroke="#000000" stroke-width="0.25" stroke-linejoin="round"/>
</svg>