<?xml version="1.0" encoding="UTF-8"?>
<svg data-name="Layer 1" version="1.1" viewBox="0 0 300 96" xmlns="http://www.w3.org/2000/svg">
 <defs>
  <style>.cls-1{fill:#fff;}</style>
 </defs>
 <title>Artboard 1</title>
 <path d="m223.1 44.529-7.7988 2.5215v0.66016l3.4785 2.7598v9.0684a9.67 9.67 0 0 0-4.5-0.89844c-6.72 0-13.859 4.3201-13.859 14.58 0 8.04 4.4408 12.779 10.801 12.779a9.37 9.37 0 0 0 8-4h0.17969l0.41992 4 7.9395-1.8008v-0.59961l-3.6602-2.8203v-36.25h-1zm-124.1 4.9805c-9.29 0-16.129 6.4211-16.119 18.371 0 11.7 6.7184 18.119 16.318 18.119 5.12 0 9.6011-1.7993 12.121-5.2793l-1.3203-1.8613c-4 3.14-7.0002 3.6609-10.24 3.6309-6.42 0-10.561-4.6406-10.561-14.641 0-10.26 3.46-15.84 10-15.84 3.12 0 5.0417 0.83977 7.2617 4.2598l2.2793 3.541 1.2598-0.30078v-10l-3.5606 1.1406a28 28 0 0 0-7.4394-1.1406zm24 9.1309a12.27 12.27 0 0 0-10.24 4.8594l0.77929 1.7402a11.81 11.81 0 0 1 7.2012-2.5195c3.3 0 5.5801 1.7393 5.5801 5.2793v3.1797a16.89 16.89 0 0 0-3.541-0.35938c-6.74 1e-6 -10.74 2.6394-10.74 7.8594 0 4.92 3.0606 7.3203 7.5606 7.3203 2.94 0 5.7598-1.3196 6.8398-3.5996h0.24024a4.13 4.13 0 0 0 4.3809 3.5996 7.11 7.11 0 0 0 5.1602-1.8008l-0.18164-1.3184c-3.44 0.48-4.4394-0.24-4.4394-3l0.04101-13.24c0-5.36-4.1406-8-8.6406-8zm22.52 0c-5.04 0-8.7598 2.4591-8.7598 7.6191 0 4.44 2.3394 6.6599 5.9394 7.9199l3.4199 1.2012c3 1.02 4.3203 2.2786 4.3203 4.5586 0 2.78-1.8 3.7812-4.5 3.7812-3.24 0-5.5796-1.3813-8.0996-6.7812l-1.4394 0.41992 0.53906 8.6406 2.6797-1.4004a14.2 14.2 0 0 0 5.9414 1.3809c5.36 0 9.3594-2.2206 9.3594-7.5605 0-4.52-2.4199-6.62-6.4199-8l-3.4199-1.1406c-2.92-1.02-4-2.3986-4-4.5586s1.5001-3.6016 4.0801-3.6016c2.58 0 4.6798 1.2612 7.2598 5.7012l1.2598-0.41992-0.48047-7.6797-2.8789 1a12.66 12.66 0 0 0-4.8008-1.0801zm43.09 0a12.27 12.27 0 0 0-10.199 4.8594l0.77929 1.7402a11.81 11.81 0 0 1 7.2012-2.5195c3.3 0 5.5801 1.7393 5.5801 5.2793v3.1797a16.89 16.89 0 0 0-3.541-0.35938c-6.74 1e-6 -10.74 2.6394-10.74 7.8594 0 4.92 3.0606 7.3203 7.5606 7.3203 2.94 0 5.7598-1.3196 6.8398-3.5996h0.24024a4.13 4.13 0 0 0 4.3809 3.5996 7.11 7.11 0 0 0 5.1582-1.8008l-0.17969-1.3184c-3.44 0.48-4.4394-0.24-4.4394-3v-13.24c0-5.36-4.1406-8-8.6406-8zm69.74 0c-5.04 0-8.7598 2.4591-8.7598 7.6191 0 4.44 2.3395 6.6599 5.9395 7.9199l3.4199 1.2012c3 1.02 4.3203 2.2786 4.3203 4.5586 0 2.78-1.8 3.7812-4.5 3.7812-3.24 0-5.5796-1.3813-8.0996-6.7812l-1.4492 0.41992 0.53907 8.6406 2.6894-1.4004a14.21 14.21 0 0 0 5.9414 1.3809c5.36 0 9.3594-2.2206 9.3594-7.5605 0-4.52-2.4199-6.62-6.4199-8l-3.4199-1.1406c-2.92-1.02-4-2.3986-4-4.5586s1.5001-3.6016 4.0801-3.6016c2.58 0 4.6798 1.2612 7.2598 5.7012l1.2598-0.41992-0.48047-7.6797-2.8789 1a12.66 12.66 0 0 0-4.8008-1.0801zm-89.639 0.019531c-7.26 0-13.08 5.2808-13.08 13.801 0 8.76 4.9193 13.559 11.279 13.559 3.9 0 7.2598-1.16 9.8398-5l-0.7793-1.3789a11.83 11.83 0 0 1-7 2.459c-5.28 0-8.3398-4.06-8.3398-10.5 0-6.44 3-10.439 8-10.439a8 8 0 0 1 2.1797 0.25977 3.47 3.47 0 0 0-1.3203 2.6992 3.23 3.23 0 0 0 3.4199 3.3613 3.41 3.41 0 0 0 3.4199-3.6602c0-3.6-3.4792-5.1602-7.6191-5.1602zm70.129 0c-6.72 0-12.359 4.9199-12.359 13.92s5.0995 13.439 11.52 13.439c4.62 0 7.6798-1.7 9.8398-5l-0.77929-1.3789a11.93 11.93 0 0 1-7.4414 2.459c-5.04 0-8.0996-4.0204-8.0996-10.9h16.32a14.77 14.77 0 0 0 0.30078-3.1191c0-6.06-3.9008-9.4199-9.3008-9.4199zm-24.699 2.5a6.2 6.2 0 0 1 4.5586 1.5v17.84a8.58 8.58 0 0 1-5 1.6797v-0.019532c-4.7 0-7.8098-3.48-7.8398-10-1e-5 -6.86 3.3612-11 8.2812-11zm24 0.060547c3.12 0 4.6192 1.9798 4.6192 5.7598a14.66 14.66 0 0 1-0.06055 1.6191h-11c0.84-5.1 3.5414-7.3789 6.4414-7.3789zm-113.38 12.18h1.5605v7.0801a6 6 0 0 1-4.8594 2 3.75 3.75 0 0 1-4.0801-4.0801c0-3.92 2.7589-5 7.3789-5zm65.65 0h1.5605v7.0801a6 6 0 0 1-4.8613 2 3.75 3.75 0 0 1-4.0801-4.0801c0-3.92 2.7609-5 7.3809-5z"/>
 <path class="cls-1" d="m231.79 25.141a2 2 0 1 0 2 2 2 2 0 0 0-2-2zm43.951 0a2 2 0 1 0 2 2 2 2 0 0 0-2-2zm-186.17 1.5488c-4.48 0-7 2.86-7 7.5s2.59 7.5 7 7.5c4.41 0 6.9297-2.86 6.9297-7.5s-2.4497-7.5-6.9297-7.5zm69.09 0c-2.39 0-4.6602 1.2807-4.6602 4.2207a4.15 4.15 0 0 0 2.9004 4.2402l1.7793 0.74023c1.63 0.62 2.3203 1.2891 2.3203 2.6191a1.89 1.89 0 0 1-2.1406 2.0098 3.52 3.52 0 0 1-3.1289-1.9199l-1.2109-1.75-0.76953 0.15039 0.41992 4.7109 1.3301-0.79102a6.82 6.82 0 0 0 3.4102 0.79102c2.64-1e-6 4.8906-1.3711 4.8906-4.3711 0-2.27-1.0101-3.6095-3.3301-4.5195l-1.8516-0.74023c-1.48-0.59-2-1.2506-2-2.3906a1.81 1.81 0 0 1 1.9512-1.8789 3.15 3.15 0 0 1 2.7891 1.5801l1.1914 1.5488 0.66992-0.15039-0.2207-4.0996-1.2109 0.54102a10 10 0 0 0-3.1289-0.54102zm53.16 0.24024-0.20117 0.79102 1.8711 0.56836v8c0 2.6-1.3809 3.7812-3.3808 3.7812-2 0-3.1797-1.0812-3.1797-3.7012v-8.0684l1.5801-0.57031-0.19922-0.79102h-6.1406l-0.16992 0.79102 1.5391 0.57031v8.1094c0 3.82 2.4919 5.2793 5.9219 5.2793 3.43 0 5.6484-1.9489 5.6484-5.3789l0.04101-8.0215 1.5801-0.56836-0.20117-0.79102h-4.709zm-43.871 0.84961-3.9492 3.3809v0.83984h1.4707v6.2402c0 2.48 1.3398 3.4805 3.2598 3.4805a4.11 4.11 0 0 0 3.5801-1.8516l-0.25-0.58984a3.55 3.55 0 0 1-1.8301 0.52148c-0.99 0-1.5312-0.57-1.5312-2v-5.8008h3.0606l0.18945-1.3105h-3.2598v-2.9102h-0.74023zm18.051 0-3.9199 3.3809v0.83984h1.4805v6.2402c0 2.48 1.3398 3.4805 3.2598 3.4805a4.11 4.11 0 0 0 3.5801-1.8516l-0.25-0.58984a3.56 3.56 0 0 1-1.8301 0.52148c-0.99 0-1.5312-0.57-1.5312-2v-5.8008h3.0606l0.15039-1.3105h-3.2598v-2.9102h-0.74023zm96.199 0-3.9492 3.3809 0.00977 0.83984h1.4805v6.2109c0 2.48 1.3398 3.4785 3.2598 3.4785a4.11 4.11 0 0 0 3.6094-1.8203l-0.25-0.58984a3.56 3.56 0 0 1-1.8301 0.52148c-0.99 0-1.5293-0.57-1.5293-2v-5.8008h2.832l0.28711 0.18945 4.2305 10.201c-0.54 1.68-1.6802 3.1598-2.7402 3.2598a1.5 1.5 0 0 0 0.39062-1 1.43 1.43 0 0 0-1.5098-1.5801 1.56 1.56 0 0 0-1.6504 1.6992 2 2 0 0 0 2.25 2c2.49 0 3.8509-1.759 5.1309-5.209l3.6289-9.7207 1.1406-0.39062-0.15039-0.80859h-4.1504l-0.11914 0.83984 1.5488 0.46875-1.3594 4a29.63 29.63 0 0 0-0.83985 2.9414h-0.09961a10.92 10.92 0 0 0-0.75976-2.9102l-1.5996-4.0703 1.5781-0.37109-0.14844-0.85937h-5.7207l-0.00195 0.009765h-2.2285v-2.9102h-0.74023zm-192.67 0.089844c2.23 0 3.2305 1.7603 3.2305 6.3203 0 4.54-0.97047 6.3203-3.2305 6.3203s-3.2598-1.7503-3.2598-6.3203c0-4.57 1.0298-6.3203 3.2598-6.3203zm37.09 1.5508a1.26 1.26 0 0 0-1.3594 1.2793 1 1 0 0 0 0.15039 0.58984 9.44 9.44 0 0 0-3.9492-0.80859c-3.11 0-4.7402 1.6796-4.7402 3.8496a3.09 3.09 0 0 0 2.2891 3.0801c-1.32 0.32-2.3203 1.0403-2.3203 2.3203a2.2 2.2 0 0 0 2.2012 2.2695v0.039062c-1.68 0.29-2.791 0.88102-2.791 2.291 0 1.9 2.2305 2.5898 5.2305 2.5898 3.24 0 6.2402-1.1191 6.2402-4.1191 0-2.36-1.4803-3.5-3.8203-3.5l-3.8106 0.019531c-0.59 0-0.88867-0.18023-0.88867-0.74023 0-0.56 0.39016-0.83 0.91016-1a5.86 5.86 0 0 0 1.5 0.16992c2.17 0 4.5391-1.0597 4.5391-3.4297a2.49 2.49 0 0 0-1.4492-2.3203v-0.26953a5.6 5.6 0 0 0 1.9492 0.51953 1.37 1.37 0 0 0 1.5-1.4609 1.31 1.31 0 0 0-1.3809-1.3691zm-14.578 0.96484a3.75 3.75 0 0 0-0.25196 0.015625c-2.98 0-5.5 2.0895-5.5 5.7695s2.19 5.4805 5 5.4805c2.1 0 3.6006-0.71024 4.3906-2.4902l-0.46875-0.54102a3.86 3.86 0 0 1-2.6602 1c-2.1 0-3.0816-1.5286-3.1016-3.8086h6.3203a7.22 7.22 0 0 0 0.12109-1.4102 3.75 3.75 0 0 0-3.8496-4.0156zm83.908 0a3.75 3.75 0 0 0-0.25 0.015625c-2.98 0-5.5 2.0895-5.5 5.7695s2.19 5.4805 5 5.4805c2.1 0 3.6006-0.71024 4.3906-2.4902l-0.4707-0.54102a3.87 3.87 0 0 1-2.6582 1c-2.1 0-3.0816-1.5286-3.1016-3.8086h6.3203a7.21 7.21 0 0 0 0.12109-1.4102 3.75 3.75 0 0 0-3.8516-4.0156zm54.771 0a3.75 3.75 0 0 0-0.25 0.015625c-2.98 0-5.5 2.0895-5.5 5.7695s2.19 5.4805 5 5.4805c2.1 0 3.5987-0.71024 4.3887-2.4902l-0.46876-0.54102a3.86 3.86 0 0 1-2.6602 1c-2.09 0-3.0809-1.5286-3.1309-3.8086h6.3496a7.22 7.22 0 0 0 0.12109-1.4102 3.75 3.75 0 0 0-3.8496-4.0156zm-73.15 0.02539a5.74 5.74 0 0 0-4.791 2.1992l0.30078 0.7207a5.9 5.9 0 0 1 2.9394-0.74023c1.46 0 2.3711 0.72039 2.3711 2.1504v0.93945a6.52 6.52 0 0 0-1.4805-0.19922c-2.74 0-4.4707 1.0605-4.4707 3.2305a2.76 2.76 0 0 0 3 3 3.06 3.06 0 0 0 3-1.6016h0.07032a1.93 1.93 0 0 0 2.1504 1.5801 3.51 3.51 0 0 0 2.5898-0.88867l-0.07031-0.49023c-1.15 0.13-1.5488-0.12047-1.5488-1.2305l-0.06055-4.75c0-3.01-2-3.9199-4-3.9199zm-45.031 0.019532c-3.33-1e-6 -5.5293 1.9009-5.5293 5.6309s2.1993 5.6289 5.5293 5.6289c3.33 0 5.5312-1.8989 5.5312-5.6289s-2.2012-5.6309-5.5312-5.6309zm9.5312 0.009765-3.7305 1.2109v0.26953l1 1.6309v6.7695l-1 0.43945v0.68945h5.3809l0.31836-0.71875-1.459-0.4707v-6.6602a2.86 2.86 0 0 1 1.9492-0.83984c0.91 0 1.75 0.55039 1.75 2.1504v5.3789l-1 0.4707v0.68945h5.4004l0.32031-0.71875-1.4199-0.50977v-6c0-2.52-1.3797-3.7812-3.1797-3.7812a4.23 4.23 0 0 0-3.7812 2.1504h-0.09961l0.07031-2.1504h-0.51953zm77.93 0-3.6602 1.2109v0.26953l1 1.6309v6.7695l-1 0.43945v0.68945h5.3809l0.31836-0.71875-1.459-0.4707v-6.6602a2.86 2.86 0 0 1 1.9492-0.83984c0.91 0 1.75 0.55039 1.75 2.1504v5.3789l-1 0.4707v0.68945h5.4004l0.32031-0.71875-1.4902-0.50977v-6c0-2.52-1.3797-3.7812-3.1797-3.7812a4.23 4.23 0 0 0-3.7793 2.1504h-0.10156l0.07031-2.1504h-0.51953zm12.9 0-3.7305 1.2109v0.26953l1 1.6309v6.7695l-1 0.43945v0.68945h5.3809l0.31836-0.71875-1.4297-0.4707v-9.8203h-0.53906zm35.33 0c-2.22 0-3.8711 1.0612-3.8711 3.4512a3.21 3.21 0 0 0 2.6406 3.3301l1.5996 0.51953c1.11 0.35 1.5801 0.79008 1.5801 1.5801 0 0.99-0.69922 1.3105-1.6992 1.3105-1.38 0-2.2896-0.54094-3.5996-2.7109l-0.66992 0.15039 0.26953 3.6289 1.2793-0.56836a6.81 6.81 0 0 0 2.6406 0.56836c2.69 0 4.3691-1.0202 4.3691-3.4102 0-1.88-0.93945-2.9081-2.9394-3.5781l-1.7793-0.5918c-0.86-0.29-1.2305-0.66891-1.2305-1.3789 0-0.71 0.53969-1.1797 1.4297-1.1797 1.24 0 2.1602 0.70906 3.1602 2.2891l0.58984-0.15039-0.07031-3.2383-1.3594 0.46875a5.58 5.58 0 0 0-2.3398-0.49024zm8.6191 0-3.7305 1.2109v0.26953l1 1.6309v6.7695l-1 0.43945v0.68945h5.3809l0.32031-0.71875-1.4297-0.4707v-9.8203h-0.54101zm-176.02 0.009766-3.7305 1.2305v0.26953l1 1.6309v6.7305l-1 0.43945v0.68945h6l0.32031-0.75976-2.0898-0.41016v-6.1387a5 5 0 0 1 1.7793-1.5801 1.61 1.61 0 0 0 1.7012 1.7285 1.69 1.69 0 0 0 1.6992-1.7988 1.89 1.89 0 0 0-2.0996-2 3.44 3.44 0 0 0-3.0801 2.5195h-0.09961l0.11914-2.5508h-0.51953zm157.78 0-3.7285 1.2305v0.26953l1 1.6309v6.7305l-1 0.43945v0.68945h6l0.31836-0.75976-2.0996-0.41016v-6.1387a5 5 0 0 1 1.7812-1.5801 1.61 1.61 0 0 0 1.6992 1.7285 1.69 1.69 0 0 0 1.6992-1.7988 1.89 1.89 0 0 0-2.0996-2 3.44 3.44 0 0 0-3.0801 2.5195h-0.09961l0.13086-2.5508h-0.52148zm-24.549 0.23047-0.16993 0.76953 1.1094 0.74023 3.6309 9.25h2.4394l3.6797-9.5488 1.1406-0.39062-0.15039-0.81055h-4.1699l-0.12109 0.83984 1.5508 0.4707-1.4199 4.1504a21 21 0 0 0-0.85938 2.8887h-0.10156a19.4 19.4 0 0 0-0.76953-2.8594l-1.5-4.2695 1.5801-0.37109-0.16992-0.85937h-5.6992zm-112.7 0.87109c1.28 0 1.5 1.0284 1.5 2.5684-1e-5 1.54-0.24001 2.541-1.5 2.541-1.26 0-1.4785-0.97102-1.4785-2.541 0-1.57 0.21852-2.5684 1.4785-2.5684zm11.18 0.019531c1.66 0 2.1016 1.6302 2.1016 4.4902 1e-5 2.86-0.45156 4.4902-2.1016 4.4902v0.009766c-1.66 0-2.0996-1.64-2.0996-4.5s0.43961-4.4902 2.0996-4.4902zm-21 0.009766c1.16 0 1.4805 1.0392 1.4805 2.1992a4.24 4.24 0 0 1-0.07031 0.91016h-3.4785c0.19-2.1 0.90836-3.1094 2.0684-3.1094zm83.91 0c1.16 0 1.4805 1.0392 1.4805 2.1992a4.19 4.19 0 0 1-0.07031 0.91016h-3.4785c0.19-2.1 0.90836-3.1094 2.0684-3.1094zm54.771 0c1.16 0 1.4785 1.0392 1.4785 2.1992a4.19 4.19 0 0 1-0.06836 0.91016h-3.4805c0.2-2.1 0.91031-3.1094 2.0703-3.1094zm-72.371 5.0605h0.58008v2.6797a2 2 0 0 1-1.4297 0.51953 1.38 1.38 0 0 1-1.4394-1.5195c0-1.31 0.82906-1.6797 2.2891-1.6797zm-58 5.5801h3.1113c1.46 0 1.9492 0.56977 1.9492 1.5098 0 1.56-1.4797 2.0996-3.4297 2.0996-1.66 0-2.6602-0.60992-2.6602-1.9199a1.81 1.81 0 0 1 1.0293-1.6895z" style="fill:#d73f09"/>
 <path class="cls-1" d="M74.66,34.1a28.6,28.6,0,0,0-2.43-8,14,14,0,0,0-3.45-4.52,10.17,10.17,0,0,0-6.59-2.42,12,12,0,0,0-3.32.46L62,12.83l.38-.81-.72-.51L55.43,7.05l-.28-.2H49.91C49,6.86,48,6.18,46.8,5.32A16.62,16.62,0,0,0,36.54,1.73c-4.28,0-7.66,1.19-10.33,3.64h0L15.38,15.93h0l-.31.3L8.78,22.37h0a14.74,14.74,0,0,0-2.62,3.75,28.6,28.6,0,0,0-2.43,8,45.82,45.82,0,0,0,.66,19.43,51.76,51.76,0,0,0,9.35,18.42c5.48,7,13,13.45,22.27,19l2.64,1.58.55.33.55-.33L42.38,91c9.3-5.58,16.79-12,22.27-19A51.76,51.76,0,0,0,74,53.53,45.82,45.82,0,0,0,74.66,34.1Z"/>
 <path d="M34.07,27H24.41L23.54,41.5a5.63,5.63,0,0,1,1.54.46Z"/>
 <path d="M26.56,60l-.08,0V61.1l.48.21a7.58,7.58,0,0,0,3,.54,7.52,7.52,0,0,0,3.21-.62V60a6.6,6.6,0,0,1-3.21.73,6.52,6.52,0,0,1-3-.63Z"/>
 <path d="M27,64.48l-.4-.19-.08,0v1.18l.48.21a7.58,7.58,0,0,0,3,.54,8,8,0,0,0,2.46-.34V64.71a6.66,6.66,0,0,1-2.46.4A6.52,6.52,0,0,1,27,64.48Z"/>
 <path d="M27,68.8l-.4-.19-.08,0v1.18L27,70a7.58,7.58,0,0,0,3,.54,9.34,9.34,0,0,0,1.43-.1V69.31a7.93,7.93,0,0,1-1.43.12A6.52,6.52,0,0,1,27,68.8Z"/>
 <path d="M37.83,6.91a9.72,9.72,0,0,1,2.31.8A14.35,14.35,0,0,1,42.23,9a32.45,32.45,0,0,0,3.21,2.23V9.44c-.82-.45-1.63-1-2.49-1.52a15.54,15.54,0,0,0-2.37-1.23A10.74,10.74,0,0,0,38,6,12.51,12.51,0,0,0,35.33,6h-.15v.71h.18A11.69,11.69,0,0,1,37.83,6.91Z"/>
 <path d="M73.61,34.28a27.57,27.57,0,0,0-2.33-7.68,12.9,12.9,0,0,0-3.18-4.18,9.12,9.12,0,0,0-5.91-2.17,10.17,10.17,0,0,0-7.43,3l-3.22-3.48.52-1.12h4.38l-.52,1.12H57.6l3.47-7.44L54.81,7.92h-4.9c-1.22,0-2.32-.76-3.72-1.72a15.49,15.49,0,0,0-9.65-3.4,13.51,13.51,0,0,0-9.61,3.36L15.81,17h0L9.54,23.12A13.65,13.65,0,0,0,7.11,26.6a27.57,27.57,0,0,0-2.33,7.68,44.75,44.75,0,0,0,.64,19,50.7,50.7,0,0,0,9.16,18c5.39,6.94,12.79,13.26,22,18.77l2.64,1.58,2.64-1.58c9.19-5.51,16.58-11.83,22-18.77a50.7,50.7,0,0,0,9.16-18A44.75,44.75,0,0,0,73.61,34.28ZM28,7.27c.79-.73,3.21-2.95,8.56-2.95,4.26,0,6.66,1.66,8.79,3.13,1.55,1.07,2.88,2,4.58,2h4.41l4.84,3.44-2,4.29H52.81a3,3,0,0,1-1.75-.7A3.19,3.19,0,0,1,50,14.27h-.76a4.36,4.36,0,0,0,.2,1.58,4,4,0,0,0,.83,1.44,4.08,4.08,0,0,0,.55.51L49.73,20.1l3,3.2H50.44L46.54,20h-.91L48.5,23.3H42.74L39.41,20h-2a7.79,7.79,0,0,0,.67-2.83c0-.18,0-.36,0-.53l0-.53,0-.26,0-.26L37.9,15a8.15,8.15,0,0,0-.76-2,7.58,7.58,0,0,0-1.25-1.68l-.18-.19-.2-.17-.4-.34a8,8,0,0,0-.87-.58,7.4,7.4,0,0,0-3-1,8.26,8.26,0,0,0-.91,0v.74a6.77,6.77,0,0,1,3.47,1.08,7,7,0,0,1,.73.54l.33.31.16.16.15.17a6.5,6.5,0,0,1,1,1.5,7,7,0,0,1,.56,1.7l.06.44,0,.22v.67c0,.15,0,.3,0,.44a6.42,6.42,0,0,1-1.25,3.24l-.9,1.2h4.16l1.81,1.81H23.46V17H18Zm-7.7,22.17a5.65,5.65,0,0,1-4.93,4.23c-.18,0-.37,0-.56,0a5.67,5.67,0,0,1-5.64-5.28c0-.13,0-.25,0-.38a5.69,5.69,0,0,1,1.79-4.12l5.52-5.39h5.5v5.42ZM71.49,52.86a46.63,46.63,0,0,1-4.56,11h0l-.32.55-.24.41-.32.53-.28.45-.3.48-.57.86-.23.33-.43.63-.26.36-.46.63-.23.31-.7.92h0l-.68.84a67.22,67.22,0,0,1-8.7,8.87,86,86,0,0,1-7.94,6q-2.05,1.38-4.24,2.69L39.2,89.87h0l-1.86-1.11c-9-5.41-16.27-11.6-21.55-18.4l-.45-.6-.31-.4-.54-.75-.19-.26-.6-.86-.1-.15-.63-1,0-.05a47.51,47.51,0,0,1-6-13.47,43.22,43.22,0,0,1-.61-18.32,30.29,30.29,0,0,1,1.39-5.4A7.15,7.15,0,0,0,9,32.23c-.21.83-.4,1.7-.56,2.67a45.58,45.58,0,0,0-.55,4.53l10,4.69a5.53,5.53,0,0,1,.56-.76,5.65,5.65,0,0,1,.49-.48L12.86,35a7.07,7.07,0,0,0,3.33.12L20.31,42a5.66,5.66,0,0,1,1.54-.46l-.62-10.32a7.18,7.18,0,0,0,.5-1.36L23.21,25l.05-.18H55.42l.23-.25a8.49,8.49,0,0,1,6.54-2.8,7.61,7.61,0,0,1,4.93,1.82,11.4,11.4,0,0,1,2.8,3.69,26.09,26.09,0,0,1,2.19,7.26A43.22,43.22,0,0,1,71.49,52.86Z"/>
 <circle cx="54.69" cy="12.53" r=".82"/>
 <path d="M50,13h0a1.66,1.66,0,0,1,1.27-1.26v-.77h-2V13Z"/>
 <path d="M70,34.9c-.87-5-2.93-11-7.82-11A6.24,6.24,0,0,0,56.54,27H38.67L26.47,42.87a5.66,5.66,0,0,1,.44.43,5.44,5.44,0,0,1,.65.87l8.75-4-.72,3.17-7.37,2.34a6.18,6.18,0,0,1,.21,1.68,5.48,5.48,0,0,1-.72-.2c-.25-.09-.48-.19-.71-.3l-.34-.16L26,46.44a7.33,7.33,0,0,0-1.84-.53l-.32,0-.53,0-.51,0h-.15l-.51,0-.5,0-.36,0a7.3,7.3,0,0,0-1.78.5c-.26.11-.51.23-.74.34l-.35.17c-.22.1-.45.2-.69.29a5.49,5.49,0,0,1-.72.2,6.14,6.14,0,0,1,.23-1.75L7.73,42.52c0,1.11,0,2.21.14,3.3h0c0,.11,0,.22,0,.33s0,.46.06.68H8c0,.17,0,.34.05.51H8.6l.29,0h0c.23,0,.44,0,.63.08h0a7,7,0,0,1,1.9.68,8,8,0,0,0,4,.95,8,8,0,0,0,4-.95c.28-.14.56-.27.85-.38a6,6,0,0,1,2-.41h.87a6,6,0,0,1,1.94.37c.32.12.62.26.93.41a8,8,0,0,0,4,.95,8,8,0,0,0,4-.95l.66-.3-.33,1.47L35.66,49l-.34,1.55a8.59,8.59,0,0,0-2,.73,6.76,6.76,0,0,1-3.4.82,6.76,6.76,0,0,1-3.4-.82,7.76,7.76,0,0,0-3.87-.92,7.75,7.75,0,0,0-3.86.92,6.76,6.76,0,0,1-3.4.82,6.76,6.76,0,0,1-3.4-.82,8.68,8.68,0,0,0-1.91-.72h0l-.12,0-.19,0-.22,0-.14,0h0a9,9,0,0,0-.93-.08q.11.54.24,1.08l.62.07.21,0,.14,0,.31.07h0l.31.09a9.66,9.66,0,0,1,1.19.5,7.75,7.75,0,0,0,3.86.92,7.76,7.76,0,0,0,3.87-.92,6.76,6.76,0,0,1,3.4-.82,6.77,6.77,0,0,1,3.4.82,7.75,7.75,0,0,0,3.87.92,7.75,7.75,0,0,0,3.87-.92,9.32,9.32,0,0,1,1.24-.52l-.69,3.2c-.41.15-.77.32-1.11.48a6.49,6.49,0,0,1-3.3.8,6.49,6.49,0,0,1-3.3-.8,8,8,0,0,0-4-.95,8,8,0,0,0-4,.95,6.49,6.49,0,0,1-3.3.8,6.49,6.49,0,0,1-3.3-.8l-.7-.32h0l0,0-.09,0h0a7.23,7.23,0,0,0-1.65-.46c.18.56.38,1.12.59,1.68h0a46.07,46.07,0,0,0,3.37,7.06l.18.31.3.49.22.36.29.46.25.39.29.44.28.42.28.4.32.46.26.36.39.53.21.29.62.82c5.12,6.58,12.17,12.6,21,17.88l.76.46.76-.46c8.8-5.28,15.85-11.29,21-17.88l0,0q.48-.61.93-1.24l.11-.16q.46-.63.89-1.27l.07-.11q.92-1.36,1.75-2.75a46.06,46.06,0,0,0,3.55-7.44h0c.18-.49.36-1,.52-1.47a7.23,7.23,0,0,0-1.65.46h0l-.08,0-.05,0h0l-.7.32a7.25,7.25,0,0,1-6.61,0,8.77,8.77,0,0,0-7.93,0,7.25,7.25,0,0,1-6.61,0c-.34-.16-.69-.33-1.11-.48L42.73,49l1.41.29h0l-.85-3.74L47.9,41l3,2.23,4.76-4.81,4.76,4.81,3-2.23,5.45,5.52,1.37,1.39c.06-.48.12-1,.17-1.45h0c0-.07,0-.14,0-.2s0-.2,0-.3h0A43.55,43.55,0,0,0,70,34.9Zm-8.95.7.09-.28h1.74l.54-1.65h.29l.54,1.65H66l.09.28-1.41,1,.54,1.65-.23.17-1.41-1-1.41,1-.23-.17.54-1.65Zm-3.72-.2-.23.17-1.41-1-1.41,1-.23-.17.54-1.65-1.41-1,.09-.28H55l.54-1.65h.29l.54,1.65h1.74l.09.28-1.41,1Zm-7.87,2.88-.23.17-1.41-1-1.41,1-.23-.17.54-1.65-1.41-1,.09-.28h1.74l.54-1.65H48l.54,1.65h1.74l.09.28-1.41,1ZM43.08,57.81l-1.72-.35h0l2.36,11.3h0L39.2,66.94l-4.53,1.83h0L37,57.46l-1.72.35h0l2.25-10.75h0l-1.3.26,2.8-15h.28l2.8,15-1.3-.26h0Zm-3,12.44.35,10.67H37.93l.37-10.68.06-1.74.84-.41.86.43ZM37,73.32,37,74a5.24,5.24,0,0,0-2.46.66A9.17,9.17,0,0,1,30,75.75a9,9,0,0,1-4.35-1l-.18-.08L25,74.46l-.07,0a5.09,5.09,0,0,0-.6-.22l.64-.53h0l0,0,.18-.15c.33.13.63.27.94.42l.4.19a7.52,7.52,0,0,0,3.47.74,7.75,7.75,0,0,0,3.87-.92A6.73,6.73,0,0,1,37,73.1Zm14.9.77.4-.19c.31-.15.61-.29.94-.42l.85.71a5.28,5.28,0,0,0-.67.25l-.07,0-.39.18-.18.08a9,9,0,0,1-4.35,1,9.17,9.17,0,0,1-4.53-1.08A5.24,5.24,0,0,0,41.43,74l-.05-.69,0-.23a6.73,6.73,0,0,1,3.2.82,7.75,7.75,0,0,0,3.87.92A7.52,7.52,0,0,0,51.9,74.1Zm-18-17.31,0,0-.65,3h0l1.78-.36-2.56,12L37.32,69l-.12,1.61L37.1,72a7.73,7.73,0,0,0-3.73.92,6.76,6.76,0,0,1-3.4.82,6.59,6.59,0,0,1-3.18-.71L26.56,73c-.34-.16-.69-.33-1.08-.47V57.65l0,0-1,.77V72.73l-1,.8h0V57.92l1.89-1.42.09,0,.38.17.18.09c.29.14.59.28.93.42h0a7.93,7.93,0,0,0,3,.52A8,8,0,0,0,33.93,56.79Zm10.53,0a8,8,0,0,0,4,.95,7.93,7.93,0,0,0,3-.52h0c.34-.13.64-.28.93-.42l.05,0,.51-.24.09,0,1.89,1.42v15.6h0l-1-.8V58.45l-1.07-.8V72.48c-.39.14-.74.31-1.08.47l-.22.11a6.59,6.59,0,0,1-3.18.71A6.76,6.76,0,0,1,45,73,7.73,7.73,0,0,0,41.28,72l-.11-1.4L41,69l4.8,2.38-.33-1.54L43.28,59.41l1.78.36-.65-3Z"/>
 <path d="M51.43,61.31l.48-.21V59.92l-.08,0-.4.19a6.52,6.52,0,0,1-3,.63A6.6,6.6,0,0,1,45.22,60v1.17a8.65,8.65,0,0,0,6.21.08Z"/>
 <path d="M51.43,64.48a6.52,6.52,0,0,1-3,.63,6.66,6.66,0,0,1-2.46-.4v1.13a8,8,0,0,0,2.46.34,7.58,7.58,0,0,0,3-.54l.48-.21V64.25l-.08,0Z"/>
 <path d="M51.43,68.8a6.52,6.52,0,0,1-3,.63A7.93,7.93,0,0,1,47,69.31V70.4a9.34,9.34,0,0,0,1.43.1,7.58,7.58,0,0,0,3-.54l.48-.21V68.58l-.08,0Z"/>
 <polygon points="13.31 29.45 13.91 29.86 20.15 21.33 20.15 20.24 19.12 20.24"/>
 <polygon points="48.68 50.99 48.68 47.32 47.13 47.32 47.13 48.21 47.65 48.21 47.65 50.99"/>
 <path d="M51.62,50a1.45,1.45,0,0,0,2.83,0,1,1,0,0,0-.63-.94.9.9,0,0,0,.48-.81,1.29,1.29,0,0,0-2.53,0,.9.9,0,0,0,.48.81A1,1,0,0,0,51.62,50ZM53,48.62a.35.35,0,1,1,.34-.35A.34.34,0,0,1,53,48.62Zm0,1.64a.38.38,0,0,1-.37-.38.37.37,0,1,1,.74,0A.38.38,0,0,1,53,50.26Z"/>
 <path d="M58.39,47.32l-.78,1A2.53,2.53,0,0,0,57,49.79a1.37,1.37,0,0,0,.5,1,1.71,1.71,0,0,0,1,.32,1.44,1.44,0,0,0,1.58-1.4A1.23,1.23,0,0,0,59,48.42a1.2,1.2,0,0,0-.35.05l1-1.16Zm.18,1.91a.53.53,0,0,1,0,1.07.53.53,0,1,1,0-1.07Z"/>
 <path d="M62.54,50a1.45,1.45,0,0,0,2.83,0,1,1,0,0,0-.63-.94.9.9,0,0,0,.48-.81,1.29,1.29,0,0,0-2.53,0,.9.9,0,0,0,.48.81A1,1,0,0,0,62.54,50ZM64,48.62a.35.35,0,1,1,.34-.35A.34.34,0,0,1,64,48.62Zm0,1.64a.38.38,0,0,1-.37-.38.37.37,0,1,1,.74,0A.38.38,0,0,1,64,50.26Z"/>
</svg>
